{"glyphs":{"0":{"ha":713,"x_min":0,"x_max":0,"o":"m 660 708 b 469 950 628 815 576 917 b 207 888 394 974 269 951 b 192 878 201 885 196 882 b 64 172 22 724 -37 382 b 539 61 156 -17 383 -47 b 661 706 731 194 721 501 z m 369 707 b 328 661 349 704 338 678 b 275 549 308 625 292 586 b 215 392 251 499 231 446 b 199 219 203 332 185 282 b 194 219 199 218 196 218 b 176 340 165 253 165 297 b 306 783 157 490 215 681 b 314 794 308 786 311 790 b 454 808 357 819 417 842 b 515 692 485 782 503 738 b 392 701 490 729 418 744 b 289 490 351 635 318 564 b 224 335 268 439 243 388 b 283 521 238 399 258 460 b 331 628 299 557 315 592 b 374 706 342 653 351 690 b 371 713 378 708 374 713 z m 436 178 b 432 174 435 176 433 175 b 478 249 449 197 464 222 b 538 392 501 294 521 343 b 546 413 540 399 543 406 b 438 178 538 321 507 232 z m 526 428 b 471 290 511 381 492 335 b 374 146 444 235 411 189 b 258 181 332 138 292 151 b 340 218 292 174 329 185 b 519 639 390 360 447 508 b 525 656 522 644 524 650 b 538 590 531 632 535 610 b 546 503 542 563 544 533 b 526 424 539 476 535 449 z "},"1":{"ha":424,"x_min":0,"x_max":0,"o":"m 264 903 b 28 413 231 719 149 550 b 143 340 -29 347 92 283 b 283 501 163 363 283 501 b 196 329 268 379 196 329 b 157 79 183 246 171 163 b 228 4 150 32 188 4 b 331 138 333 4 324 97 b 407 894 338 178 406 883 b 263 907 421 978 278 990 z "},"2":{"ha":647,"x_min":0,"x_max":0,"o":"m 563 364 b 438 310 524 433 397 394 b 442 301 439 307 440 304 b 428 317 438 307 433 313 b 422 313 425 319 419 317 b 453 211 442 282 449 247 b 454 188 454 204 454 196 b 207 157 413 186 321 183 b 206 163 204 157 204 160 b 326 235 236 215 326 235 b 471 451 379 303 428 375 b 507 874 536 565 606 757 b 133 872 407 992 236 978 b 163 494 19 754 42 592 b 247 608 232 438 326 544 b 276 596 247 608 246 606 b 279 601 281 594 283 599 b 218 739 232 639 208 689 b 403 688 267 828 424 874 b 272 406 392 582 328 488 b 46 119 204 306 129 204 b 22 54 17 104 13 78 b 124 10 33 13 85 -18 b 560 42 263 53 418 50 b 568 42 563 42 565 42 b 638 101 603 38 638 56 b 567 360 639 189 608 286 z m 475 186 b 469 222 474 200 471 213 b 464 251 468 232 467 242 b 485 186 472 231 479 208 b 476 186 482 186 479 186 z "},"3":{"ha":638,"x_min":0,"x_max":0,"o":"m 519 588 b 379 654 465 639 385 654 b 289 644 335 660 304 650 b 285 649 281 642 282 646 b 425 697 331 696 425 697 b 581 840 482 749 569 829 b 604 899 601 860 607 881 b 539 961 604 931 583 961 b 85 956 388 961 236 960 b 63 951 76 956 69 954 b 13 882 32 946 6 922 b 18 749 21 838 18 794 b 146 704 18 678 111 657 b 171 828 151 713 168 743 b 368 826 218 826 314 826 b 138 611 368 826 206 683 b 125 557 119 592 114 571 b 201 503 154 519 178 504 b 249 514 211 503 244 513 b 290 525 263 518 276 522 b 406 506 331 535 371 528 b 460 256 479 460 485 332 b 263 149 431 169 344 124 b 236 160 253 151 244 156 b 200 236 221 183 208 208 b 199 393 185 288 189 342 b 192 394 200 397 193 399 b 203 190 169 324 175 253 b 171 363 167 235 161 301 b 29 394 183 440 50 465 b 197 31 -18 235 63 96 b 583 176 340 -39 507 42 b 518 593 656 304 619 497 z "},"4":{"ha":747,"x_min":0,"x_max":0,"o":"m 651 568 b 489 539 626 564 489 539 b 490 547 485 539 485 546 b 551 593 513 553 539 575 b 576 857 563 689 574 763 b 557 946 576 863 581 929 b 451 939 526 967 478 971 b 28 440 446 932 161 582 b 38 360 1 413 14 376 b 140 344 51 350 74 332 b 353 388 211 358 282 374 b 307 147 343 363 319 224 b 297 61 300 110 293 63 b 315 78 308 58 314 69 b 365 390 336 165 365 390 b 378 394 369 392 374 393 b 328 76 364 303 343 167 b 401 6 319 31 360 6 b 483 63 438 6 475 24 b 536 425 504 167 524 318 b 678 454 583 435 631 444 b 650 574 768 471 735 588 z m 368 526 b 264 508 333 521 299 515 b 394 660 308 558 351 608 b 379 576 389 632 385 604 b 367 526 375 560 371 543 z m 393 531 b 385 531 390 531 388 531 l 403 667 b 411 679 404 668 410 678 b 394 533 406 631 400 582 z "},"5":{"ha":619,"x_min":0,"x_max":0,"o":"m 414 638 b 222 650 360 663 286 674 b 186 629 199 642 186 629 b 186 825 186 629 186 810 b 371 826 189 825 307 826 b 438 876 371 826 385 851 b 443 871 443 879 450 879 b 410 826 433 860 419 843 b 393 786 403 814 397 800 b 525 739 371 700 490 665 b 586 840 531 750 557 810 b 597 917 610 865 601 904 b 540 956 590 938 572 954 b 119 960 400 958 260 960 b 92 956 110 960 100 958 b 43 899 65 951 43 933 b 42 506 43 768 46 636 b 128 431 40 456 86 431 b 226 501 183 431 214 493 b 351 524 263 529 310 538 b 463 290 435 496 469 372 b 300 135 454 206 378 135 b 257 150 290 135 274 136 b 181 294 213 186 175 229 b 172 296 181 300 172 301 b 218 165 165 246 186 201 b 160 285 188 193 169 238 b 17 281 146 357 11 361 b 600 239 38 -71 525 -93 b 418 639 635 393 556 578 z "},"6":{"ha":640,"x_min":0,"x_max":0,"o":"m 435 614 b 236 624 379 638 304 643 b 171 586 196 611 171 586 b 165 590 168 585 164 588 b 249 660 199 647 249 660 b 332 760 271 699 297 735 b 501 847 386 799 501 847 b 446 956 567 883 518 971 b 21 281 165 894 -28 569 b 103 92 40 165 93 101 b 319 -4 157 38 238 -3 b 617 224 449 -6 581 69 b 435 610 651 372 572 550 z m 179 267 b 179 267 179 267 179 267 b 172 424 168 317 167 371 b 192 435 179 426 186 431 b 208 188 182 356 186 268 b 179 264 194 210 185 236 z m 479 271 b 317 121 471 189 394 121 b 247 143 289 121 267 129 b 213 269 232 183 219 225 b 204 449 203 329 204 389 b 243 479 206 450 231 469 b 368 499 279 506 326 513 b 479 274 451 472 486 353 z "},"7":{"ha":663,"x_min":0,"x_max":0,"o":"m 561 535 b 490 531 538 533 514 532 b 581 854 490 531 547 750 b 501 960 588 876 585 965 b 83 935 363 951 224 939 b 13 861 35 933 7 894 b 86 700 19 817 75 725 b 219 738 115 639 239 661 b 210 763 217 746 214 754 b 153 858 192 796 175 829 b 154 860 151 860 153 861 b 219 810 200 839 219 810 b 407 818 282 811 344 814 b 363 657 389 765 378 710 b 318 515 349 610 332 563 b 143 507 260 511 201 508 b 133 383 58 504 44 385 b 271 383 179 382 225 382 b 122 86 269 381 200 214 b 269 35 74 6 229 -43 b 433 389 251 -1 358 190 b 592 397 486 392 539 394 b 563 531 689 404 651 536 z m 376 651 b 424 818 390 707 403 747 b 436 818 428 818 432 818 b 382 640 421 758 403 699 b 378 651 379 633 368 611 z "},"8":{"ha":626,"x_min":0,"x_max":0,"o":"m 611 293 b 611 293 611 293 611 293 b 471 519 604 403 547 478 b 574 707 528 558 568 621 b 572 728 574 714 574 721 b 572 728 572 728 572 728 b 51 711 553 1044 47 1033 b 149 518 53 622 92 558 b 14 276 69 474 13 393 b 611 272 18 -92 589 -93 b 610 293 611 279 611 286 z m 426 722 b 425 710 426 718 426 714 b 321 825 401 757 364 797 b 426 722 369 817 415 781 z m 267 821 b 408 672 329 796 386 739 b 197 724 353 586 192 599 b 267 819 200 778 229 808 z m 161 278 b 463 276 167 467 436 450 b 160 279 443 94 154 88 z "},"9":{"ha":628,"x_min":0,"x_max":0,"o":"m 486 878 b 229 957 482 882 379 982 b 21 722 115 938 44 835 b 439 422 -29 488 249 282 b 365 526 504 471 425 554 b 279 513 358 524 307 506 b 233 810 208 600 147 724 b 376 794 297 856 363 807 b 442 339 508 667 518 482 b 394 264 428 313 413 288 b 225 108 347 201 286 154 b 233 99 218 103 228 96 b 379 213 286 129 336 168 b 275 121 351 175 317 143 b 336 7 196 78 264 -29 b 492 878 631 157 717 624 z m 240 525 b 168 689 192 553 163 615 b 183 749 169 711 175 731 b 240 526 163 679 193 593 z "},"\n":{"ha":0,"x_min":0,"x_max":0,"o":""},"\r":{"ha":0,"x_min":0,"x_max":0,"o":""}," ":{"ha":388,"x_min":0,"x_max":0,"o":""},"!":{"ha":226,"x_min":0,"x_max":0,"o":"m 192 907 b 57 885 179 986 50 969 b 60 856 58 875 58 865 b 60 860 60 857 60 858 b 50 899 58 868 54 885 b 35 894 46 913 35 904 b 39 857 35 882 38 868 b 49 696 47 806 47 749 b 53 533 50 642 53 588 b 44 368 53 478 42 424 b 51 357 44 363 47 358 b 47 324 50 346 49 335 b 192 311 39 239 183 225 b 188 908 210 510 218 710 z m 124 231 b 35 196 93 242 46 232 b 10 74 22 158 8 114 b 75 1 11 33 38 6 b 111 8 88 0 100 3 b 151 69 118 11 142 26 b 167 165 158 101 172 139 b 122 229 168 194 150 219 z "},"\"":{"ha":386,"x_min":0,"x_max":0,"o":"m 354 951 b 224 922 335 1022 214 993 b 213 947 221 931 217 939 b 206 943 211 950 204 947 b 231 786 222 892 226 839 b 210 697 226 754 219 724 b 349 668 178 614 321 593 b 357 949 382 756 382 858 z m 38 919 b 26 944 35 928 31 936 b 19 940 25 947 18 944 b 44 783 36 889 40 836 b 24 694 40 751 33 721 b 163 664 -8 611 135 590 b 171 944 196 751 196 854 b 40 915 151 1015 31 986 z "},"#":{"ha":799,"x_min":0,"x_max":0,"o":"m 704 468 b 629 475 679 471 654 474 b 633 563 631 504 632 533 b 696 553 654 560 675 557 b 731 682 785 538 822 664 b 644 694 703 688 674 692 b 665 886 650 758 657 822 b 508 899 676 969 521 982 b 489 753 500 842 496 810 b 574 701 544 749 574 701 b 569 694 578 699 575 693 b 369 704 538 700 486 711 b 403 875 381 761 392 818 b 246 889 419 958 264 969 b 201 689 231 822 215 756 b 185 689 196 689 190 689 b 197 804 192 728 197 767 b 196 804 197 804 196 804 b 154 686 178 767 165 726 b 83 676 131 683 107 681 b 115 546 -21 660 18 532 b 124 546 118 546 121 546 b 119 533 122 542 121 538 b 103 447 114 506 108 476 b 69 443 92 446 81 444 b 79 315 -25 428 0 321 b 72 246 75 292 72 268 b 93 240 72 236 90 231 b 110 315 100 265 106 290 b 131 319 117 317 124 318 b 101 78 118 239 108 158 b 269 64 93 -11 260 -25 b 306 339 279 156 292 247 b 449 344 353 342 401 343 b 450 78 446 256 446 167 b 618 64 454 -10 619 -26 b 621 343 617 157 618 250 b 688 339 643 342 665 340 b 699 472 792 332 803 461 z m 151 457 b 131 453 144 456 138 454 b 139 503 133 469 136 486 b 149 549 142 518 144 533 b 169 553 156 550 163 551 b 153 457 164 521 158 489 z m 456 482 b 326 476 447 482 353 478 b 343 572 332 508 338 540 b 464 578 372 575 458 578 b 456 482 461 546 458 514 z "},"$":{"ha":569,"x_min":0,"x_max":0,"o":"m 556 760 b 432 771 564 828 442 839 b 426 729 431 757 428 743 b 475 633 456 710 472 664 b 469 632 475 631 471 629 b 442 685 461 650 453 668 b 421 710 436 694 429 703 b 386 732 410 718 399 725 b 390 826 388 764 389 796 b 269 836 392 893 275 904 b 265 774 268 815 267 794 b 257 774 263 774 260 774 b 253 774 256 774 254 774 b 256 840 254 796 256 818 b 244 842 256 846 246 847 b 235 779 240 821 238 800 b 78 740 179 785 122 776 b 90 542 7 683 40 599 b 196 463 119 510 157 485 b 174 333 189 419 182 376 b 153 229 167 299 160 264 b 161 379 113 263 144 342 b 40 418 192 447 68 482 b 129 117 -14 296 -1 168 b 119 54 125 96 121 75 b 119 54 119 54 119 54 b 140 111 128 72 135 92 b 149 107 143 110 146 108 b 153 107 150 107 151 107 b 144 74 150 96 147 85 b 268 33 125 0 249 -35 b 285 92 274 53 279 72 b 526 228 389 94 499 132 b 365 492 560 342 465 426 b 378 592 369 525 374 558 b 410 525 394 572 407 550 b 532 529 415 467 535 468 b 532 543 532 535 532 539 b 532 543 532 543 532 543 b 558 753 542 613 549 683 z m 185 211 b 176 214 182 213 179 213 b 172 217 175 214 174 215 b 192 315 179 250 185 283 b 215 449 200 360 208 404 b 228 440 219 446 224 443 b 183 213 215 364 200 288 z m 222 579 b 222 579 222 579 222 579 b 185 661 204 592 147 643 b 232 665 199 668 215 668 b 222 578 229 636 226 607 z m 246 563 b 233 571 242 565 238 568 b 247 661 238 600 243 631 b 260 657 251 660 256 658 b 247 561 256 625 251 593 z m 343 207 b 318 203 335 206 326 204 b 350 358 329 254 340 306 b 346 208 404 307 450 231 z "},"%":{"ha":715,"x_min":0,"x_max":0,"o":"m 532 376 b 485 365 515 378 499 374 b 403 335 456 360 428 350 b 354 297 386 322 371 310 b 347 303 351 296 344 299 b 429 381 364 332 396 363 b 660 815 517 521 594 667 b 528 858 693 890 561 925 b 57 100 394 592 238 336 b 181 25 0 26 131 -40 b 322 217 229 88 276 151 b 338 126 319 186 325 154 b 563 24 378 36 468 -7 b 700 193 635 47 689 119 b 532 376 715 293 622 367 z m 547 204 b 544 194 547 203 546 197 b 535 174 543 190 535 175 b 519 154 531 167 525 160 b 519 154 519 154 519 154 b 519 154 519 154 519 154 b 503 142 514 150 508 146 b 494 140 517 150 499 143 b 489 144 493 142 490 143 b 485 147 488 146 486 147 b 483 151 485 149 485 150 b 513 249 454 194 472 233 b 521 244 515 247 518 246 b 526 242 524 243 525 242 b 526 242 526 242 526 242 b 536 235 531 240 533 238 b 539 232 532 238 536 235 b 543 228 540 231 542 229 b 543 228 543 228 543 228 b 543 228 543 228 543 228 b 543 224 543 226 543 225 b 543 215 543 222 543 218 b 543 207 543 213 543 210 z m 93 165 b 169 268 119 199 144 233 b 290 458 213 329 253 393 b 515 875 371 594 440 736 b 499 881 519 883 503 889 b 399 681 472 811 433 746 b 290 486 364 615 328 550 b 164 288 251 418 210 351 b 97 196 142 257 119 226 b 26 110 75 167 54 133 b 35 101 21 104 29 97 b 92 165 58 118 74 143 z m 157 506 b 156 510 160 506 158 510 b 40 608 97 519 58 558 b 214 519 75 549 144 508 b 374 669 289 531 356 597 b 361 785 383 708 385 750 b 236 850 332 828 286 847 b 117 849 199 865 157 867 b 31 758 76 831 47 797 b 8 642 10 726 3 689 b 156 504 17 569 79 497 z m 165 703 b 171 721 165 701 169 718 b 172 725 172 722 172 724 b 181 733 175 728 178 731 b 182 735 182 735 182 735 b 182 735 182 735 182 735 b 200 728 188 732 193 729 b 204 728 201 728 203 728 b 226 718 211 724 218 721 b 226 710 226 715 226 713 b 226 710 226 710 226 710 b 222 697 225 706 224 701 b 215 681 221 692 218 686 b 215 681 215 681 215 681 b 215 678 215 681 215 679 b 200 660 211 671 206 665 b 193 654 197 658 194 656 b 186 650 192 653 189 651 b 185 651 186 650 186 650 b 182 654 183 653 182 654 b 178 658 181 656 179 657 b 169 672 176 660 169 674 b 164 689 167 678 165 683 b 165 703 165 682 165 697 z "},"&":{"ha":746,"x_min":0,"x_max":0,"o":"m 711 146 b 626 228 676 174 656 194 b 565 178 607 199 565 178 b 560 181 564 176 558 178 b 617 274 574 206 603 249 b 647 328 626 292 636 310 b 676 393 658 350 668 372 b 532 440 708 478 569 513 b 506 388 524 424 515 406 b 493 404 501 393 497 399 b 436 492 474 433 454 463 b 526 561 468 513 499 535 b 579 883 614 644 661 779 b 257 908 500 983 356 967 b 172 718 186 868 167 792 b 168 731 171 722 169 726 b 165 731 168 732 165 732 b 201 528 149 668 176 590 b 186 519 196 525 190 522 b 17 288 92 467 31 399 b 151 29 4 183 60 79 b 513 114 292 -47 417 13 b 583 49 535 90 558 68 b 706 39 618 21 667 11 b 715 140 738 61 749 114 z m 228 538 b 224 533 226 536 225 535 b 207 583 218 550 213 567 b 229 533 214 567 221 550 z m 321 143 b 201 322 204 83 169 246 b 265 388 213 350 238 371 b 350 258 290 342 318 297 b 363 264 354 253 365 257 b 286 400 340 311 313 356 b 299 408 290 403 294 406 b 344 340 314 385 329 363 b 419 232 368 304 393 268 b 321 146 392 196 360 165 z m 407 647 b 369 617 396 636 383 626 b 350 671 363 635 356 653 b 353 781 340 704 331 750 b 457 781 378 817 443 828 b 449 697 467 750 463 722 b 424 790 457 732 453 765 b 418 788 421 792 415 790 b 410 647 447 740 433 692 z "},"'":{"ha":199,"x_min":0,"x_max":0,"o":"m 165 951 b 35 922 146 1022 25 993 b 24 947 32 931 28 939 b 17 943 22 950 15 947 b 42 786 33 892 38 839 b 21 697 38 754 31 724 b 160 667 -11 614 132 593 b 168 947 193 754 193 857 z "},"(":{"ha":322,"x_min":0,"x_max":0,"o":"m 179 882 b 79 736 138 842 104 792 b 118 824 90 765 103 794 b 117 825 118 825 117 825 b 14 493 44 725 17 615 b 28 301 13 432 15 365 b 126 36 43 201 76 108 b 269 92 174 -32 314 3 b 292 811 157 313 131 607 b 176 881 346 881 228 929 z "},")":{"ha":340,"x_min":0,"x_max":0,"o":"m 215 865 b 72 810 168 933 28 899 b 149 589 107 742 133 667 b 153 425 156 533 156 476 b 15 72 146 290 92 179 b 28 65 10 65 22 60 b 51 90 36 74 44 82 b 165 21 -3 21 114 -28 b 217 867 369 215 369 643 z "},"*":{"ha":640,"x_min":0,"x_max":0,"o":"m 543 924 b 453 904 514 917 483 910 b 315 886 407 882 354 869 b 315 890 314 888 314 890 b 403 908 346 894 375 899 b 379 1040 393 951 386 996 b 232 1036 368 1110 235 1110 b 215 881 231 982 225 931 b 190 881 207 881 199 881 b 199 951 194 904 197 928 b 194 951 199 954 194 954 b 181 881 192 928 186 904 b 86 893 149 882 117 886 b 58 781 13 908 -17 801 b 143 763 86 772 114 767 b 139 754 142 760 140 757 b 54 576 117 692 81 636 b 65 572 51 571 63 567 b 153 750 101 626 131 689 b 157 758 154 753 156 756 b 182 756 165 757 174 756 b 110 610 164 706 140 657 b 63 549 93 589 78 568 b 185 475 8 475 136 410 b 313 631 221 524 264 579 b 326 607 318 621 324 613 b 379 532 342 581 360 556 b 386 536 382 529 389 532 b 350 592 375 556 363 574 b 321 636 344 600 329 619 b 336 653 325 642 331 647 b 415 533 357 611 383 571 b 529 614 469 469 588 539 b 453 747 497 656 472 700 b 574 801 492 772 532 792 b 546 922 665 821 632 940 z "},"+":{"ha":576,"x_min":0,"x_max":0,"o":"m 515 504 b 388 524 474 515 431 521 b 329 519 368 522 349 521 b 326 528 324 519 321 526 b 376 536 343 532 360 535 b 365 706 378 593 375 650 b 224 685 351 783 211 768 b 231 518 232 631 233 575 b 210 514 224 517 217 515 b 210 572 210 533 210 553 b 201 686 208 610 200 649 b 197 686 201 689 197 689 b 196 586 190 653 196 619 b 196 511 196 561 196 536 b 67 489 151 506 108 497 b 94 371 -22 471 10 354 b 186 386 124 376 154 382 b 151 215 176 329 161 274 b 164 213 150 208 161 207 b 207 389 188 267 200 329 b 224 393 213 390 218 392 b 192 204 215 329 204 265 b 333 192 176 126 317 115 b 371 401 347 260 361 331 b 469 389 404 400 438 396 b 518 504 553 369 611 479 z "},",":{"ha":183,"x_min":0,"x_max":0,"o":"m 168 65 b 146 133 171 85 160 119 b 85 157 122 157 96 160 b 25 115 47 146 33 128 b 22 28 7 89 11 56 b 43 3 26 18 35 10 b 26 -33 40 -4 31 -25 b 49 -99 18 -47 0 -107 b 161 38 94 -90 151 -18 b 165 63 163 44 164 53 z "},"-":{"ha":690,"x_min":0,"x_max":0,"o":"m 629 376 b 229 386 500 404 363 401 b 329 401 263 392 296 397 b 493 404 383 407 439 407 b 561 393 517 403 539 397 b 633 378 586 388 610 388 b 642 392 643 374 651 386 b 522 419 610 413 560 413 b 368 422 472 428 418 425 b 200 400 311 419 256 410 b 121 388 174 396 147 392 b 46 372 96 383 71 375 b 47 360 39 371 40 361 b 57 360 51 360 54 360 b 97 244 -18 336 17 232 b 600 258 261 269 436 288 b 629 378 676 244 710 361 z "},".":{"ha":213,"x_min":0,"x_max":0,"o":"m 176 121 b 94 150 157 146 124 151 b 42 94 68 149 39 122 b 32 81 43 78 38 68 b 31 110 28 89 28 103 b 22 113 32 114 25 117 b 18 67 15 103 14 82 b 88 0 22 53 29 29 b 160 1 106 -8 142 -8 b 203 51 190 17 201 40 b 181 121 203 90 190 108 z "},"/":{"ha":536,"x_min":0,"x_max":0,"o":"m 397 938 b 17 115 265 731 93 351 b 158 42 -10 32 128 -53 b 514 839 164 58 508 828 b 396 938 551 908 443 1011 z "},":":{"ha":213,"x_min":0,"x_max":0,"o":"m 176 121 b 94 150 157 146 124 151 b 42 94 68 149 39 122 b 32 81 43 78 38 68 b 31 110 28 89 28 103 b 22 113 32 114 25 117 b 18 67 15 103 14 82 b 88 0 22 53 29 29 b 160 1 106 -8 142 -8 b 203 51 190 17 201 40 b 181 121 203 90 190 108 z m 90 274 b 161 275 108 265 144 265 b 181 396 232 314 190 383 b 99 425 161 421 128 426 b 38 369 72 424 49 399 b 44 307 32 354 28 322 b 92 276 54 297 69 288 z "},";":{"ha":199,"x_min":0,"x_max":0,"o":"m 72 276 b 143 278 90 268 126 268 b 163 399 214 317 172 386 b 81 428 143 424 110 429 b 19 372 54 426 31 401 b 26 310 14 357 10 325 b 74 279 36 300 51 290 z m 94 161 b 35 119 57 150 43 132 b 32 32 17 93 21 60 b 53 7 36 22 44 14 b 36 -29 50 0 40 -21 b 58 -94 28 -43 10 -103 b 171 42 104 -86 161 -14 b 175 67 172 49 174 57 b 153 135 178 86 167 121 b 92 158 129 158 103 161 z "},"<":{"ha":492,"x_min":0,"x_max":0,"o":"m 463 658 b 340 735 524 728 393 796 b 57 503 260 642 167 560 b 46 394 7 478 3 428 b 221 197 114 342 168 265 b 242 172 228 189 235 181 b 346 29 275 124 313 78 b 354 32 349 26 356 28 b 347 46 353 38 350 42 b 447 115 400 19 488 53 b 356 251 418 161 388 207 b 329 308 347 271 339 290 b 233 438 304 356 268 396 b 221 433 229 436 225 435 b 296 329 246 399 274 365 b 207 428 268 364 239 397 b 150 415 189 421 169 417 b 147 424 146 415 142 422 b 272 485 193 440 233 458 b 464 663 342 536 406 596 z "},"=":{"ha":547,"x_min":0,"x_max":0,"o":"m 461 386 b 301 396 410 394 356 397 b 218 396 274 397 246 397 b 126 386 188 394 157 389 b 43 368 97 383 69 381 b 46 363 39 367 42 361 b 90 371 60 365 75 368 b 65 367 82 369 74 368 b 92 251 -21 346 10 233 b 451 271 210 276 332 283 b 463 393 543 261 551 379 z m 531 594 b 381 615 483 617 432 618 b 314 613 358 614 336 614 b 72 579 232 611 149 597 b 100 460 -17 558 15 442 b 435 476 206 482 329 503 b 486 590 517 456 574 563 b 521 582 497 588 508 585 b 528 593 528 581 536 589 z "},">":{"ha":490,"x_min":0,"x_max":0,"o":"m 444 468 b 264 629 381 517 321 572 b 129 767 224 679 179 726 b 118 758 124 771 111 765 b 122 754 119 757 121 756 b 53 661 68 765 6 715 b 94 615 67 646 81 631 b 164 526 114 583 140 556 b 240 413 193 490 217 451 b 257 425 246 417 251 421 b 204 504 242 453 224 479 b 278 436 228 481 253 458 b 344 460 299 447 321 456 b 349 447 351 461 357 450 b 253 393 311 436 281 417 b 26 132 167 317 93 219 b 150 57 -29 58 101 -8 b 249 179 182 99 215 139 b 435 361 301 242 361 322 b 444 469 483 388 489 436 z "},"?":{"ha":671,"x_min":0,"x_max":0,"o":"m 283 133 b 207 167 269 161 238 168 b 135 110 178 165 144 140 b 136 44 131 99 132 56 b 169 0 144 22 163 3 b 231 1 188 -7 210 -7 b 267 22 243 6 256 13 b 288 56 276 32 283 43 b 294 89 290 67 293 78 b 283 132 296 106 290 118 z m 46 581 b 182 631 75 535 207 558 b 221 792 163 686 143 749 b 414 800 283 826 358 821 b 456 735 432 782 446 760 b 431 571 476 682 478 626 b 381 544 419 563 393 547 b 219 551 304 532 297 542 b 113 228 83 568 101 301 b 268 267 124 147 282 176 b 257 376 263 303 257 339 b 214 463 257 376 204 399 b 254 411 214 464 222 429 b 340 400 271 401 297 396 b 650 665 488 414 619 511 b 311 947 690 868 486 960 b 44 579 108 933 -61 746 z m 483 628 b 479 722 489 660 486 693 b 457 776 475 742 467 760 b 483 626 501 743 510 690 z "},"@":{"ha":814,"x_min":0,"x_max":0,"o":"m 201 490 b 293 315 203 419 233 358 b 460 315 344 278 408 288 b 690 324 525 272 631 274 b 797 636 779 399 794 531 b 621 933 801 767 757 881 b 196 849 486 986 304 928 b 17 396 54 746 3 556 b 308 13 32 222 131 75 b 733 140 458 -40 653 8 b 568 190 783 222 614 268 b 433 131 542 144 488 129 b 558 211 489 136 542 160 b 536 218 563 224 543 228 b 333 158 493 149 413 139 b 313 165 326 160 319 163 b 158 439 219 222 160 340 b 274 722 157 542 201 644 b 549 811 328 782 465 828 b 594 449 689 783 631 531 b 578 419 590 438 585 429 b 572 415 576 417 574 415 b 569 424 569 415 569 424 b 572 478 565 440 569 461 b 622 632 579 531 600 583 b 493 704 653 701 547 740 b 535 618 519 683 538 646 b 528 618 535 615 529 615 b 489 672 517 636 506 657 b 467 686 482 679 475 683 b 203 486 328 710 201 625 z m 404 450 b 368 428 401 421 375 407 b 351 510 357 450 349 486 b 422 560 356 540 399 556 b 404 453 413 525 406 489 z "},"A":{"ha":703,"x_min":0,"x_max":0,"o":"m 618 274 b 619 413 706 283 715 413 b 574 413 604 413 589 413 b 436 819 529 551 469 718 b 381 760 424 808 407 793 b 375 764 378 757 374 760 b 424 857 396 815 415 846 b 433 899 439 875 436 890 b 285 913 415 967 314 978 b 90 381 208 740 142 563 b 69 378 83 379 76 379 b 54 244 -11 365 -3 271 b 17 74 40 188 28 131 b 171 60 0 -15 154 -29 b 193 160 178 93 185 126 b 174 28 185 117 179 72 b 193 26 172 17 192 15 b 233 253 201 104 214 179 b 458 267 308 260 383 264 b 528 53 481 194 504 124 b 681 78 556 -31 710 -11 b 618 274 660 143 639 208 z m 283 399 b 288 424 283 399 288 417 b 276 429 289 436 282 439 b 260 397 271 421 260 397 b 347 650 286 482 315 567 b 419 407 371 568 394 488 b 286 400 375 406 331 403 z "},"B":{"ha":704,"x_min":0,"x_max":0,"o":"m 651 442 b 504 532 615 490 563 518 b 514 799 578 607 565 713 b 78 963 425 949 238 983 b 21 932 50 958 29 949 b 15 883 13 919 13 901 b 81 79 65 621 104 346 b 129 10 78 43 100 21 b 164 3 139 6 151 3 b 606 118 313 4 490 10 b 653 446 689 197 725 349 z m 189 799 b 118 821 169 806 144 814 b 118 828 114 822 114 826 b 183 833 147 833 183 833 b 353 772 246 832 310 817 b 381 626 389 736 424 667 b 267 575 351 600 310 585 b 242 739 261 631 253 685 b 210 793 240 746 226 801 b 211 757 204 790 210 761 b 240 571 224 696 233 633 b 224 567 235 569 229 568 b 188 804 214 647 201 726 z m 254 394 b 249 149 258 314 261 229 b 240 149 246 149 243 149 b 240 390 244 229 244 310 b 257 394 246 392 251 393 z m 499 225 b 278 150 447 169 360 154 b 283 399 290 232 288 317 b 500 392 356 414 443 424 b 499 224 561 358 539 267 z "},"C":{"ha":744,"x_min":0,"x_max":0,"o":"m 501 515 b 482 457 492 496 489 476 b 460 400 476 438 467 419 b 496 333 451 372 471 344 b 592 358 529 318 571 328 b 626 508 617 396 643 464 b 503 517 608 554 526 564 z m 674 610 b 729 892 696 703 714 797 b 575 908 743 979 593 993 b 618 799 590 892 614 857 b 611 797 618 794 614 793 b 564 867 594 825 576 850 b 458 944 535 900 500 928 b 33 571 242 1029 76 739 b 218 22 -15 378 15 115 b 714 240 399 -61 646 54 b 568 290 746 328 599 374 b 429 154 544 228 490 178 b 267 207 371 157 314 169 b 165 374 215 249 186 311 b 207 604 163 456 181 542 b 460 758 249 703 358 897 b 525 624 489 719 511 669 b 674 610 543 565 656 535 z m 251 190 b 368 139 286 163 326 147 b 218 207 313 135 257 154 b 186 272 204 226 194 249 b 254 192 204 242 226 214 z "},"D":{"ha":636,"x_min":0,"x_max":0,"o":"m 615 581 b 161 953 576 788 363 922 b 89 963 147 956 99 963 b 15 882 47 960 7 932 b 15 78 61 618 64 342 b 46 14 10 47 24 25 b 107 3 69 3 99 3 b 615 582 368 21 668 304 z m 203 571 b 193 169 226 436 233 293 b 185 165 190 168 188 167 b 201 569 203 299 207 435 z m 225 185 b 188 753 275 365 235 582 b 188 765 188 757 188 761 b 106 808 169 776 139 793 b 107 814 101 810 103 814 b 183 806 143 815 183 806 b 450 600 297 776 410 707 b 225 185 511 438 379 265 z "},"E":{"ha":604,"x_min":0,"x_max":0,"o":"m 588 99 b 565 247 575 147 567 197 b 411 274 563 333 422 350 b 394 288 411 274 401 285 b 385 271 382 292 383 278 b 397 150 392 231 396 190 b 189 142 328 147 258 144 b 206 358 197 214 203 286 b 422 378 278 363 350 369 b 393 515 522 389 488 526 b 210 499 332 508 271 503 b 199 810 210 603 206 707 b 365 818 254 813 310 815 b 419 882 375 838 392 860 b 426 881 424 886 429 885 b 399 817 415 857 404 840 b 382 686 389 774 383 729 b 536 672 381 596 535 582 b 557 813 538 719 542 767 b 569 846 561 824 565 835 b 572 851 574 854 582 867 b 515 961 600 896 575 963 b 167 946 399 958 282 953 b 39 878 122 978 33 950 b 53 529 47 763 53 646 b 36 840 49 633 42 738 b 19 885 36 851 32 900 b 13 794 10 874 11 821 b 22 93 25 561 43 326 b 24 89 22 92 24 90 b 21 72 22 83 22 78 b 93 -3 14 25 53 -1 b 113 -4 99 -4 106 -4 b 521 13 249 1 385 7 b 582 93 558 14 592 57 z "},"F":{"ha":575,"x_min":0,"x_max":0,"o":"m 492 960 b 111 958 365 968 238 965 b 58 954 107 958 71 958 b 17 897 35 946 17 928 b 31 75 17 624 19 349 b 182 43 33 -8 165 -26 b 182 35 182 40 182 38 b 188 15 182 33 181 15 b 210 69 206 15 210 56 b 215 361 211 167 214 264 b 363 375 267 364 303 368 b 333 513 463 386 428 524 b 151 496 269 506 199 499 b 99 500 136 494 118 496 b 99 503 96 500 96 503 b 172 519 129 506 153 511 b 169 824 171 618 169 725 b 369 826 236 826 303 828 b 347 678 357 778 350 728 b 357 646 347 669 349 646 b 361 664 361 646 361 660 b 361 676 361 668 361 672 b 514 672 369 594 513 585 b 535 813 515 719 519 767 b 547 846 539 824 543 835 b 550 851 551 854 560 867 b 492 963 579 900 550 958 z m 188 360 b 179 121 186 272 181 208 b 175 360 176 208 176 272 b 188 360 179 360 183 360 z "},"G":{"ha":676,"x_min":0,"x_max":0,"o":"m 596 447 b 253 401 483 465 354 458 b 329 300 182 361 269 269 b 439 325 389 331 431 328 b 325 256 411 300 386 278 b 224 267 293 244 249 246 b 175 524 154 325 164 444 b 349 788 190 632 242 744 b 515 618 467 835 522 714 b 517 604 515 613 515 608 b 658 600 525 533 650 524 b 640 925 669 708 658 818 b 508 906 628 999 500 983 b 532 822 508 904 533 864 b 526 821 532 818 528 817 b 457 915 507 874 474 910 b 399 925 439 921 419 924 b 36 594 206 932 78 764 b 42 282 13 499 4 379 b 201 85 65 197 118 118 b 396 96 258 63 331 71 b 397 89 400 97 399 92 b 517 25 363 19 474 -36 b 557 86 531 44 544 65 b 529 31 549 67 539 46 b 524 11 526 25 519 13 b 563 57 535 7 554 40 b 661 381 657 240 661 379 b 599 446 664 406 651 438 z m 438 149 b 213 104 369 107 293 78 b 122 169 175 117 146 140 b 135 158 126 165 131 161 b 418 156 228 93 329 107 b 482 203 454 175 482 203 b 439 147 478 193 453 160 z "},"H":{"ha":710,"x_min":0,"x_max":0,"o":"m 638 640 b 536 636 601 647 565 638 b 533 643 532 636 529 640 b 621 669 551 654 596 671 b 619 896 619 750 618 817 b 483 907 621 971 490 983 b 468 624 475 813 471 718 b 182 519 368 604 269 571 b 178 897 181 646 176 772 b 42 908 179 972 49 985 b 11 68 18 632 28 344 b 157 57 6 -14 146 -25 b 178 335 169 146 175 244 b 460 461 267 389 363 424 b 447 67 457 332 454 194 b 593 56 442 -15 582 -26 b 615 515 614 204 617 364 b 629 643 710 515 708 629 z m 457 483 b 174 358 363 447 258 414 b 174 363 174 360 174 361 b 457 499 254 422 354 474 b 457 482 457 493 457 488 z "},"I":{"ha":197,"x_min":0,"x_max":0,"o":"m 164 897 b 39 936 163 960 72 976 b 19 929 31 940 19 939 b 14 22 0 628 36 325 b 40 24 13 7 40 22 b 172 58 78 -15 165 -6 b 163 897 197 288 164 857 z "},"J":{"ha":590,"x_min":0,"x_max":0,"o":"m 492 913 b 467 908 483 911 475 910 b 361 883 433 901 394 893 b 365 892 360 883 356 885 b 432 932 390 908 432 932 b 306 901 407 990 290 974 b 310 872 307 892 308 882 b 42 761 217 847 128 814 b 117 661 -26 719 57 629 b 306 743 178 693 240 721 b 367 321 385 525 369 360 b 244 122 360 240 338 136 b 179 167 211 117 192 139 b 232 386 171 238 204 315 b 224 389 235 392 226 393 b 163 232 197 343 172 288 b 218 408 157 293 192 356 b 75 456 258 488 113 529 b 110 32 8 326 -37 129 b 456 111 225 -43 385 -7 b 463 782 565 294 511 571 b 525 792 467 782 517 789 b 490 914 604 813 581 931 z m 319 747 b 332 751 324 749 328 750 b 349 656 338 719 343 688 b 317 747 339 686 328 717 z "},"K":{"ha":617,"x_min":0,"x_max":0,"o":"m 583 115 b 238 488 476 243 239 486 b 238 488 238 488 238 488 b 411 674 293 551 353 613 b 528 792 450 714 489 753 b 565 829 540 804 553 817 b 575 838 579 843 572 836 b 475 946 646 906 540 1008 b 240 711 396 869 317 792 b 240 811 240 744 240 778 b 221 904 240 838 235 904 b 214 875 214 904 214 882 b 210 721 213 824 211 772 b 204 888 208 776 207 832 b 50 901 200 978 46 992 b 58 564 56 789 58 676 b 139 613 75 576 106 601 b 143 607 143 614 146 610 b 25 475 101 565 35 488 b 56 374 -7 433 18 392 b 33 79 51 275 44 176 b 188 65 24 -11 178 -25 b 201 228 193 119 197 174 b 201 94 201 183 201 139 b 207 54 201 85 200 54 b 229 153 224 54 229 124 b 229 265 229 190 229 228 b 461 28 321 171 461 28 b 579 117 519 -42 643 40 z "},"L":{"ha":628,"x_min":0,"x_max":0,"o":"m 557 342 b 413 322 532 417 388 404 b 447 181 426 275 438 228 b 210 196 329 203 231 197 b 131 179 183 194 157 190 b 124 188 125 176 118 182 b 210 238 160 226 210 238 b 243 533 233 333 243 433 b 236 885 243 572 253 885 b 224 743 218 885 219 846 b 215 438 228 642 225 539 b 208 383 214 419 211 401 b 174 915 222 558 213 746 b 40 896 157 988 28 975 b 13 69 86 618 47 344 b 83 1 7 25 44 1 b 485 36 111 1 281 99 b 539 28 500 32 514 28 b 610 85 574 28 607 49 b 554 343 617 172 581 261 z "},"M":{"ha":711,"x_min":0,"x_max":0,"o":"m 693 897 b 557 908 694 972 564 985 b 553 842 556 886 554 864 b 536 819 546 836 540 829 b 374 518 492 715 438 613 b 357 556 368 531 363 543 b 307 672 340 594 324 633 b 182 904 271 753 231 831 b 178 906 181 906 179 906 b 44 908 168 972 50 981 b 14 67 21 632 31 343 b 160 56 8 -15 149 -26 b 182 513 181 203 183 363 b 290 336 213 458 285 342 b 415 339 324 299 389 307 b 538 508 460 392 492 454 b 593 561 540 513 568 543 b 599 557 597 564 603 561 b 536 428 550 501 536 428 b 522 68 533 297 531 199 b 668 57 517 -14 657 -25 b 688 899 707 331 683 624 z m 174 851 b 174 876 174 860 174 868 b 275 678 174 882 244 751 b 322 558 292 639 307 599 b 331 533 325 550 328 542 b 171 851 276 624 171 851 z "},"N":{"ha":572,"x_min":0,"x_max":0,"o":"m 535 890 b 396 901 533 965 400 978 b 392 756 393 853 392 804 b 379 883 389 799 385 842 b 367 929 378 896 374 929 b 364 789 350 929 360 832 b 363 494 374 692 376 590 b 176 914 296 631 208 817 b 39 943 157 971 71 978 b 21 906 29 935 22 922 b 19 72 7 629 26 349 b 89 4 18 31 53 7 b 167 60 125 1 163 19 b 178 428 168 71 179 264 b 106 574 178 436 167 504 b 97 582 103 576 100 579 b 101 589 94 585 99 590 b 110 585 104 588 107 586 b 174 519 139 569 164 539 b 383 39 178 511 324 172 b 443 1 394 15 418 1 b 547 57 500 1 543 17 b 538 892 578 331 543 617 z m 392 433 b 382 454 389 440 385 447 b 394 540 388 482 392 511 b 394 494 394 525 394 510 b 394 428 394 485 394 458 b 389 432 394 426 396 419 z "},"O":{"ha":597,"x_min":0,"x_max":0,"o":"m 579 499 b 290 965 565 664 511 938 b 208 881 222 974 193 922 b 169 846 194 869 181 858 b 143 813 160 835 151 824 b 186 876 157 835 171 857 b 190 894 190 881 194 892 b 163 876 182 899 165 879 b 26 521 89 782 42 650 b 11 363 17 464 13 410 b 372 4 6 169 117 -61 b 575 499 582 58 589 342 z m 307 126 b 183 407 174 82 178 349 b 215 592 188 457 197 525 b 225 199 185 461 188 315 b 251 203 229 185 256 188 b 303 751 197 369 214 599 b 300 769 306 757 303 763 b 257 839 288 794 272 817 b 264 844 250 849 260 846 b 329 778 289 833 329 778 b 354 726 339 761 347 743 b 408 493 388 654 400 571 b 308 128 418 403 428 168 z "},"P":{"ha":657,"x_min":0,"x_max":0,"o":"m 599 756 b 207 956 519 888 360 942 l 157 958 b 75 958 129 960 101 960 b 99 821 -24 953 8 821 b 132 458 110 700 121 579 b 92 763 121 560 108 661 b 86 781 92 765 89 781 b 83 743 83 781 79 772 b 124 425 99 638 113 532 b 99 422 115 424 106 422 b 86 283 1 419 -12 281 b 138 286 101 283 119 285 b 160 24 146 199 153 111 b 165 22 160 19 163 14 b 171 50 168 31 171 43 b 322 79 185 -32 331 -11 b 301 317 315 158 308 238 b 604 751 519 378 743 521 z m 289 458 l 289 458 b 215 436 271 451 247 443 b 213 442 208 435 207 439 b 286 493 244 460 268 478 b 261 801 278 596 269 699 b 425 736 319 792 379 774 b 290 458 581 611 440 511 z "},"Q":{"ha":626,"x_min":0,"x_max":0,"o":"m 600 151 b 563 221 589 183 575 197 b 579 500 588 317 586 424 b 563 625 576 538 571 581 b 463 908 547 724 517 818 b 406 957 454 921 426 956 b 411 936 399 957 407 943 b 444 883 424 919 435 901 b 290 963 406 925 356 954 b 208 878 222 971 193 919 b 169 843 194 867 181 856 b 69 675 96 763 69 675 b 14 360 31 569 17 451 b 375 1 8 167 119 -64 b 447 35 403 8 426 19 b 583 100 483 -39 617 13 b 550 181 574 128 563 154 b 550 181 550 181 550 181 b 606 83 578 142 600 81 b 597 147 611 86 611 110 z m 392 97 b 357 157 381 121 369 142 b 310 122 344 142 329 129 b 186 403 176 78 181 344 b 294 751 194 500 222 665 b 304 765 294 751 306 764 b 261 835 292 790 276 813 b 268 840 254 844 264 842 b 333 774 293 829 333 774 b 358 722 343 757 351 739 b 413 489 392 650 404 567 b 417 450 414 478 415 464 b 404 465 413 456 408 461 b 385 464 399 472 389 469 b 275 379 325 494 232 447 b 381 196 313 319 349 258 b 393 169 383 192 392 175 b 404 99 399 153 401 139 b 399 96 404 94 400 93 z "},"R":{"ha":697,"x_min":0,"x_max":0,"o":"m 678 100 b 525 401 639 206 583 306 b 654 708 626 467 690 565 b 228 958 604 903 406 950 b 140 960 215 960 156 960 b 128 821 43 960 29 821 b 140 821 132 821 136 821 b 144 429 146 690 147 560 b 96 426 126 428 110 426 b 83 288 -1 425 -15 286 b 140 290 101 288 121 289 b 122 78 136 219 131 149 b 265 33 114 -1 229 -22 b 282 25 265 26 281 15 b 308 315 293 121 301 218 b 388 338 335 322 361 329 b 538 42 444 243 499 144 b 676 100 568 -42 710 10 z m 315 464 b 322 725 319 551 322 639 b 313 760 322 744 317 760 b 306 743 308 760 306 756 b 299 465 306 651 303 558 b 294 785 300 572 299 679 b 224 811 275 793 250 803 b 224 815 221 813 221 815 b 292 817 249 819 292 817 b 481 725 368 808 442 786 b 314 464 569 588 450 506 z "},"S":{"ha":719,"x_min":0,"x_max":0,"o":"m 356 636 b 169 749 328 650 176 707 b 311 776 160 811 275 796 b 485 601 381 742 442 665 b 631 643 524 542 651 554 b 640 869 613 717 622 797 b 493 919 663 960 515 1006 b 483 874 489 904 486 889 b 540 746 483 874 532 832 b 533 743 540 740 536 739 b 475 836 506 794 493 815 b 272 939 421 894 347 929 b 38 672 135 957 -60 815 b 300 506 94 590 214 546 b 468 390 344 485 414 443 b 465 122 511 308 514 201 b 211 301 372 103 243 225 b 169 503 186 363 171 436 b 15 517 167 593 13 607 b 183 86 19 364 65 190 b 689 151 317 -32 624 -57 b 353 640 761 379 526 557 z m 538 190 b 504 146 528 171 517 157 b 517 336 531 206 533 274 b 536 190 547 290 560 240 z "},"T":{"ha":729,"x_min":0,"x_max":0,"o":"m 714 790 b 669 853 714 814 703 839 b 486 897 608 878 547 894 b 376 894 457 899 406 899 b 368 901 369 893 363 896 b 433 928 386 918 433 928 b 307 908 404 974 313 972 b 307 888 307 901 307 894 b 58 817 224 874 140 849 b 14 761 18 799 14 785 b 39 549 14 692 19 615 b 176 569 60 475 183 488 b 154 722 172 621 160 671 b 267 756 192 735 229 746 b 285 688 267 756 282 711 b 290 583 289 653 290 618 b 286 388 290 518 289 453 b 271 182 283 322 279 247 b 264 106 267 146 268 131 b 261 49 260 82 256 51 b 274 71 269 44 271 58 b 282 103 276 86 281 100 b 282 69 282 92 282 81 b 428 58 276 -12 417 -24 b 447 781 461 292 449 543 b 551 765 482 779 517 775 b 550 733 549 754 550 739 b 529 576 547 681 536 629 b 535 568 529 572 532 569 b 535 568 535 568 535 568 b 667 525 506 490 633 457 b 717 794 706 604 717 731 z m 299 707 b 286 765 294 726 290 746 b 303 769 292 767 297 768 b 299 711 301 750 300 731 z m 564 683 b 565 721 565 696 565 708 b 567 767 565 733 568 751 b 575 763 569 765 572 764 b 563 682 572 735 568 708 z "},"U":{"ha":693,"x_min":0,"x_max":0,"o":"m 617 908 b 465 885 593 994 440 975 b 525 360 511 717 551 535 b 436 168 515 296 486 215 b 497 657 533 285 510 515 b 483 710 497 664 492 711 b 468 618 461 707 467 638 b 326 132 483 451 503 182 b 286 142 314 133 300 136 b 213 804 94 225 167 600 b 142 796 193 799 169 794 b 142 800 139 796 139 799 b 217 835 175 811 199 822 b 253 885 233 847 250 872 b 217 960 263 918 254 950 b 124 943 189 967 153 961 b 58 835 83 918 63 851 b 289 -1 0 565 -81 56 b 611 908 783 -78 685 636 z "},"V":{"ha":701,"x_min":0,"x_max":0,"o":"m 539 913 b 361 389 485 736 426 561 b 354 242 360 385 376 319 b 346 239 353 235 346 233 b 335 326 343 275 338 307 b 183 897 290 518 240 708 b 32 874 157 982 4 963 b 117 575 63 775 90 675 b 39 825 92 658 65 742 b 22 860 38 829 26 863 b 24 814 13 854 24 815 b 179 282 79 638 136 461 b 231 26 199 197 213 111 b 246 28 232 17 249 18 b 246 32 246 29 246 31 b 388 38 274 -21 363 -19 b 688 857 507 303 603 579 b 542 907 715 946 568 992 z "},"W":{"ha":803,"x_min":0,"x_max":0,"o":"m 653 908 b 576 526 629 782 601 654 b 590 381 576 526 603 432 b 581 383 589 375 583 374 b 471 756 568 421 496 654 b 422 806 471 785 449 801 b 339 771 389 814 350 801 b 319 703 338 768 325 721 b 333 774 324 726 328 750 b 322 768 333 775 329 785 b 297 676 314 747 301 697 b 279 610 292 654 286 632 b 239 464 265 561 250 513 b 149 913 211 614 176 764 b 15 894 135 986 6 972 b 144 67 47 628 103 332 b 171 15 142 50 167 18 b 222 3 185 6 204 1 b 288 42 251 3 279 15 b 390 400 322 150 358 289 b 413 338 392 403 404 360 b 521 14 425 301 517 14 b 532 22 526 14 532 17 b 608 7 551 6 582 0 b 660 64 638 13 661 32 b 789 900 701 332 757 631 b 653 913 797 976 667 986 z m 397 428 b 401 444 399 433 400 439 b 439 318 414 401 426 360 z "},"X":{"ha":625,"x_min":0,"x_max":0,"o":"m 481 931 b 449 879 469 913 449 878 b 481 950 460 900 485 949 b 443 906 472 954 451 919 b 286 593 381 794 292 603 b 275 606 282 586 269 560 b 290 682 278 632 283 657 b 147 924 242 763 193 843 b 21 875 110 990 -17 953 b 225 489 83 744 154 617 b 44 89 225 489 97 224 b 122 3 24 38 71 3 b 317 299 163 3 286 246 b 428 36 354 229 392 106 b 497 3 442 8 469 1 b 565 90 543 4 586 36 b 406 489 526 188 461 368 b 606 875 406 489 536 749 b 482 933 640 940 517 989 z "},"Y":{"ha":713,"x_min":0,"x_max":0,"o":"m 560 931 b 401 728 499 869 446 801 b 404 742 396 718 397 728 b 432 789 413 758 422 774 b 526 914 460 833 497 871 b 519 918 529 918 522 921 b 367 708 460 851 404 788 b 383 585 367 708 397 653 b 378 585 383 582 379 582 b 347 658 368 610 360 635 b 347 658 347 658 347 658 b 151 932 288 753 221 843 b 29 857 99 997 -31 933 b 74 799 44 838 60 818 b 36 839 61 813 49 826 b 29 835 33 842 26 839 b 188 594 85 756 142 679 b 256 440 214 544 236 493 b 203 33 254 436 185 168 b 261 -3 206 11 233 -3 b 344 47 303 -3 339 3 b 678 842 376 329 483 649 b 557 926 743 907 615 985 z m 271 475 b 214 592 254 515 235 554 b 276 486 236 557 257 522 b 271 474 274 482 272 478 z "},"Z":{"ha":815,"x_min":0,"x_max":0,"o":"m 800 104 b 726 361 782 192 753 276 b 618 471 710 417 690 479 b 563 413 583 467 563 440 b 571 381 563 408 568 388 b 592 311 578 358 585 335 b 546 393 579 342 564 369 b 538 390 543 397 536 394 b 589 256 556 346 575 303 b 607 185 596 232 601 208 l 261 161 b 633 869 399 379 510 649 b 633 911 642 885 640 899 b 556 960 626 924 617 963 b 163 922 549 960 185 926 b 117 871 138 918 117 901 b 124 686 115 801 121 756 b 253 665 126 615 235 597 b 251 781 260 693 254 753 b 238 864 250 789 250 808 b 243 867 236 867 240 869 b 275 797 263 846 271 822 l 439 810 b 151 282 439 810 231 417 b 103 213 136 258 119 235 b 42 131 82 185 64 160 b 10 86 31 117 6 89 b 29 96 14 82 22 89 b 88 168 49 115 69 147 b 38 82 75 146 38 83 b 118 -1 8 33 68 -6 b 118 -1 118 -1 118 -1 b 714 28 314 10 522 36 b 768 42 738 26 756 32 b 793 103 788 53 799 74 z "},"[":{"ha":396,"x_min":0,"x_max":0,"o":"m 313 904 b 126 901 253 907 186 911 b 58 849 93 901 61 885 b 31 486 47 728 38 607 b 31 524 31 499 31 511 b 29 846 29 631 39 739 b 26 846 29 847 26 847 b 17 510 15 735 17 621 b 22 351 17 457 18 404 b 15 65 18 257 15 161 b 22 36 15 54 18 44 b 26 32 24 35 25 33 b 26 32 26 32 26 32 b 57 7 33 21 44 13 b 124 -1 78 -3 103 -6 b 211 4 153 0 182 3 b 226 4 214 4 228 4 b 260 4 238 4 249 4 b 264 4 240 4 260 4 b 343 57 299 4 339 18 b 275 121 346 92 310 119 b 174 125 243 122 208 125 b 204 779 176 343 189 561 b 250 782 219 781 235 782 b 265 782 253 782 267 782 b 299 782 276 782 288 782 b 303 782 279 782 299 782 b 382 835 338 782 378 796 b 314 899 385 869 349 897 z "},"\\":{"ha":561,"x_min":0,"x_max":0,"o":"m 46 839 b 63 806 51 828 57 817 b 31 849 51 819 40 833 b 14 835 24 858 8 844 b 68 765 29 810 50 789 b 114 682 86 740 99 710 b 204 493 149 621 176 558 b 351 161 231 431 326 225 b 393 7 371 111 369 54 b 401 13 396 3 403 8 b 385 90 394 38 390 64 b 401 40 390 74 396 57 b 543 114 432 -54 569 31 b 163 936 467 350 294 729 b 44 838 115 1010 7 907 z "},"]":{"ha":419,"x_min":0,"x_max":0,"o":"m 357 853 b 282 901 353 889 317 904 b 71 903 214 911 139 906 b 79 786 -12 899 0 788 b 199 783 119 786 160 785 b 199 783 199 783 199 783 b 215 433 201 667 207 550 b 250 146 222 339 229 240 b 250 129 250 140 250 135 b 119 124 206 129 161 126 b 128 7 36 119 49 8 b 324 -1 193 6 258 0 b 324 -1 324 -1 324 -1 b 406 53 364 -6 406 11 b 357 850 404 319 383 585 z m 229 429 b 204 779 219 546 215 663 b 204 779 204 779 204 779 b 217 779 208 779 213 779 b 247 283 231 614 242 449 b 231 429 240 332 235 381 z "},"^":{"ha":306,"x_min":0,"x_max":0,"o":"m 272 769 b 188 875 238 800 210 835 b 143 886 181 889 158 893 b 136 888 142 889 138 890 b 79 819 122 861 99 840 b 15 772 68 807 26 778 b 25 771 14 772 10 761 b 65 797 39 778 54 786 b 49 776 60 790 54 783 b 33 760 44 772 29 756 b 53 714 14 739 32 714 b 115 742 81 714 100 726 b 168 818 149 775 163 801 b 178 813 171 825 175 836 b 169 767 182 785 167 774 b 231 719 172 761 194 719 b 275 769 301 719 307 742 z "},"_":{"ha":649,"x_min":0,"x_max":0,"o":"m 301 -43 b 321 -43 335 -47 325 -44 b 207 -18 293 -35 235 -26 b 207 -14 204 -18 204 -14 b 296 -24 235 -18 260 -22 b 333 -24 308 -24 321 -24 b 456 -21 372 -24 414 -24 b 456 -42 456 -28 456 -35 b 433 -136 454 -75 450 -107 b 439 -140 431 -140 436 -143 b 453 -125 444 -136 449 -131 b 449 -133 451 -128 450 -131 b 579 -172 415 -214 544 -239 b 632 68 615 -101 639 -11 b 557 117 628 110 592 124 b 549 117 554 117 551 117 b 111 113 407 99 253 85 b 15 64 71 135 22 103 b 43 6 7 42 13 15 b 300 -44 106 -12 235 -35 z m 483 -22 b 468 -83 479 -43 474 -64 b 472 -56 469 -74 471 -64 b 476 -22 474 -46 475 -35 b 485 -22 479 -22 482 -22 z "},"`":{"ha":203,"x_min":0,"x_max":0,"o":"m 40 790 b 44 786 42 789 43 788 b 13 785 36 789 17 792 b 108 742 7 774 51 785 b 186 739 119 731 185 690 b 71 882 188 788 125 864 b 38 789 18 900 -14 808 z "},"a":{"ha":703,"x_min":0,"x_max":0,"o":"m 618 274 b 619 413 706 283 715 413 b 574 413 604 413 589 413 b 436 819 529 551 469 718 b 381 760 424 808 407 793 b 375 764 378 757 374 760 b 424 857 396 815 415 846 b 433 899 439 875 436 890 b 285 913 415 967 314 978 b 90 381 208 740 142 563 b 69 378 83 379 76 379 b 54 244 -11 365 -3 271 b 17 74 40 188 28 131 b 171 60 0 -15 154 -29 b 215 253 183 125 199 189 b 457 269 296 261 376 267 b 526 56 479 197 503 126 b 679 81 554 -28 708 -8 b 617 276 658 146 638 211 z m 258 400 b 346 653 285 485 314 569 b 418 410 369 571 393 490 b 260 400 365 407 313 404 z "},"b":{"ha":704,"x_min":0,"x_max":0,"o":"m 651 442 b 504 532 615 490 563 518 b 514 799 578 607 565 713 b 78 963 425 949 238 983 b 21 932 50 958 29 949 b 15 883 13 919 13 901 b 81 79 65 621 104 346 b 129 10 78 43 100 21 b 164 3 139 6 151 3 b 606 118 313 4 490 10 b 653 446 689 197 725 349 z m 119 825 b 185 831 149 831 185 831 b 354 769 247 829 311 814 b 382 624 390 733 425 664 b 222 563 343 588 281 572 b 186 801 213 643 200 722 b 115 824 167 808 142 817 b 115 831 111 825 111 829 z m 493 226 b 236 149 435 163 328 151 b 236 390 240 229 240 310 b 496 394 314 410 428 432 b 494 226 557 361 535 269 z "},"c":{"ha":744,"x_min":0,"x_max":0,"o":"m 460 757 b 525 622 489 718 511 668 b 674 608 543 564 656 533 b 729 890 696 701 714 796 b 575 907 743 978 593 992 b 618 797 590 890 614 856 b 611 796 618 793 614 792 b 564 865 594 824 576 849 b 458 943 535 899 500 926 b 33 569 242 1028 76 738 b 218 21 -15 376 15 114 b 714 239 399 -62 646 53 b 568 289 746 326 599 372 b 214 208 517 150 313 75 b 206 604 136 313 158 494 b 458 758 247 703 357 897 z "},"d":{"ha":636,"x_min":0,"x_max":0,"o":"m 615 581 b 161 953 576 788 363 922 b 89 963 147 956 99 963 b 15 882 47 960 7 932 b 15 78 61 618 64 342 b 46 14 10 47 24 25 b 107 3 69 3 99 3 b 615 582 368 21 668 304 z m 186 167 b 188 768 213 365 211 569 b 106 811 169 779 139 796 b 107 817 101 813 103 817 b 183 808 143 818 183 808 b 450 603 297 779 410 710 b 185 168 517 426 354 238 z "},"e":{"ha":593,"x_min":0,"x_max":0,"o":"m 578 99 b 556 247 565 147 557 197 b 401 261 553 338 399 351 b 411 151 403 224 406 188 b 182 143 335 149 258 146 b 199 360 190 215 196 288 b 415 379 271 364 343 371 b 386 517 515 390 481 528 b 203 500 325 510 264 504 b 192 811 203 604 199 708 b 358 819 247 814 303 817 b 413 883 368 839 385 861 b 419 882 417 888 422 886 b 392 818 408 858 397 842 b 375 688 382 775 376 731 b 529 674 374 597 528 583 b 550 814 531 721 535 768 b 563 847 554 825 558 836 b 565 853 567 856 575 868 b 508 963 593 897 568 964 b 161 947 392 960 276 954 b 33 879 117 979 28 951 b 17 76 54 614 57 340 b 89 1 10 29 49 3 b 108 0 94 0 101 0 b 517 17 244 6 381 11 b 578 97 554 18 588 61 z "},"f":{"ha":575,"x_min":0,"x_max":0,"o":"m 492 960 b 111 958 365 968 238 965 b 58 954 107 958 71 958 b 17 897 35 946 17 928 b 31 75 17 624 19 349 b 185 61 35 -15 189 -29 b 175 357 181 160 178 258 b 361 372 250 361 288 364 b 332 510 461 383 426 521 b 150 493 268 503 197 496 b 97 497 135 492 117 493 b 97 500 94 497 94 500 b 171 517 128 503 151 508 b 168 821 169 615 168 722 b 376 824 238 824 307 825 b 357 682 364 778 358 729 b 511 668 356 592 510 578 b 532 808 513 715 517 763 b 544 842 536 819 540 831 b 547 847 549 850 557 863 b 489 958 576 896 547 954 z "},"g":{"ha":676,"x_min":0,"x_max":0,"o":"m 596 447 b 253 401 483 465 354 458 b 329 300 182 361 269 269 b 439 325 389 331 431 328 b 325 256 411 300 386 278 b 224 267 293 244 249 246 b 175 524 154 325 164 444 b 349 788 190 632 242 744 b 515 618 467 835 522 714 b 517 604 515 613 515 608 b 658 600 525 533 650 524 b 640 925 669 708 658 818 b 508 906 628 999 500 983 b 532 822 508 904 533 864 b 526 821 532 818 528 817 b 457 915 507 874 474 910 b 399 925 439 921 419 924 b 36 594 206 932 78 764 b 42 282 13 499 4 379 b 133 161 75 201 129 164 b 417 158 226 96 328 110 b 481 206 453 178 481 206 b 440 150 476 197 454 167 b 397 93 419 125 399 96 b 517 29 363 24 474 -32 b 557 90 531 49 544 69 b 628 224 588 139 615 190 b 658 382 661 318 658 382 b 596 447 661 407 649 439 z "},"h":{"ha":710,"x_min":0,"x_max":0,"o":"m 638 640 b 536 636 601 647 565 638 b 533 643 532 636 529 640 b 621 669 551 654 596 671 b 619 896 619 750 618 817 b 483 907 621 971 490 983 b 468 624 475 813 471 718 b 182 519 368 604 269 571 b 178 897 181 646 176 772 b 42 908 179 972 49 985 b 11 68 18 632 28 344 b 157 57 6 -14 146 -25 b 178 335 169 146 175 244 b 178 358 178 335 178 357 b 461 494 258 418 358 469 b 461 460 461 489 461 460 b 449 65 458 331 456 193 b 594 54 443 -17 583 -28 b 617 514 615 203 618 363 b 631 642 711 514 710 628 z "},"i":{"ha":189,"x_min":0,"x_max":0,"o":"m 156 897 b 18 904 154 974 22 982 b 13 775 15 861 14 818 b 90 760 33 775 60 772 b 90 754 93 758 93 754 b 13 742 61 751 33 746 b 15 67 10 517 21 292 b 164 58 13 -17 154 -24 b 154 897 189 288 156 857 z "},"j":{"ha":590,"x_min":0,"x_max":0,"o":"m 492 913 b 467 908 483 911 475 910 b 361 883 433 901 394 893 b 365 892 360 883 356 885 b 432 932 390 908 432 932 b 306 901 407 990 290 974 b 310 872 307 892 308 882 b 42 761 217 847 128 814 b 117 661 -26 719 57 629 b 300 739 176 692 238 718 b 333 750 303 740 329 749 b 346 688 338 729 342 708 b 371 394 347 676 371 549 b 367 318 371 357 368 331 b 244 119 360 238 338 133 b 192 136 224 117 204 124 b 164 268 153 174 158 215 b 218 408 169 318 197 367 b 75 456 258 488 113 529 b 110 32 8 326 -37 129 b 456 111 225 -43 385 -7 b 463 782 565 294 511 571 b 525 792 467 782 517 789 b 490 914 604 813 581 931 z "},"k":{"ha":617,"x_min":0,"x_max":0,"o":"m 583 115 b 236 488 476 243 236 488 b 411 674 292 551 351 613 b 528 792 450 714 489 753 b 565 829 540 804 553 817 b 575 838 579 843 572 836 b 475 946 646 906 540 1008 b 215 686 388 861 300 775 b 208 886 214 753 211 819 b 54 900 204 976 50 990 b 63 563 60 788 63 675 b 143 611 79 575 110 600 b 147 606 147 613 150 608 b 29 474 106 564 39 486 b 60 372 -3 432 22 390 b 38 78 56 274 49 175 b 192 64 28 -12 182 -26 b 210 289 200 139 206 214 b 465 26 299 196 465 26 b 583 115 524 -43 647 39 z "},"l":{"ha":628,"x_min":0,"x_max":0,"o":"m 557 342 b 413 322 532 417 388 404 b 447 181 426 275 438 228 b 210 196 329 203 231 197 b 131 179 183 194 157 190 b 124 188 125 176 118 182 b 210 238 160 226 210 238 b 175 915 233 333 214 746 b 42 896 158 988 29 975 b 14 69 88 618 49 344 b 85 1 8 25 46 1 b 486 36 113 1 282 99 b 540 28 501 32 515 28 b 611 85 575 28 608 49 b 556 343 618 172 582 261 z "},"m":{"ha":711,"x_min":0,"x_max":0,"o":"m 693 897 b 557 908 694 972 564 985 b 553 842 556 886 554 864 b 536 819 546 836 540 829 b 374 518 492 715 438 613 l 358 497 l 340 532 b 181 850 286 622 181 850 b 181 875 181 858 181 867 b 181 908 181 879 182 908 b 47 911 171 975 53 983 b 17 69 24 635 33 346 b 163 58 11 -12 151 -24 b 185 515 183 206 186 365 b 293 339 215 461 288 344 b 418 342 326 301 392 310 b 540 511 463 394 494 457 b 596 564 543 515 571 546 b 601 560 600 567 606 564 b 539 431 553 504 539 431 b 525 71 536 300 533 201 b 671 60 519 -11 660 -22 b 690 901 710 333 686 626 z "},"n":{"ha":572,"x_min":0,"x_max":0,"o":"m 535 890 b 396 901 533 965 400 978 b 393 493 389 765 390 629 b 393 426 393 483 393 457 b 388 431 393 425 394 418 b 171 910 321 565 208 797 b 33 939 151 967 65 974 b 15 901 24 931 17 918 b 14 68 1 625 21 344 b 83 0 13 26 47 3 b 161 56 119 -3 157 15 b 172 424 163 67 174 260 b 100 569 172 432 161 500 b 92 578 97 572 94 575 b 96 585 89 581 93 586 b 104 581 99 583 101 582 b 168 515 133 565 158 535 b 378 35 172 507 318 168 b 438 -3 389 11 413 -3 b 542 53 494 -3 538 13 b 532 888 572 326 538 613 z "},"o":{"ha":597,"x_min":0,"x_max":0,"o":"m 579 499 b 290 965 565 664 511 938 b 208 881 222 974 193 922 b 169 846 194 869 181 858 b 69 678 96 765 69 678 b 14 363 31 572 17 454 b 375 4 8 169 119 -61 b 578 499 585 58 592 342 z m 304 768 b 261 838 292 793 276 815 b 268 843 254 847 264 844 b 333 776 293 832 333 776 b 358 725 343 760 351 742 b 413 492 392 653 404 569 b 313 126 422 401 432 167 b 189 407 179 82 183 349 b 297 756 197 504 225 669 b 307 769 297 756 308 768 z "},"p":{"ha":658,"x_min":0,"x_max":0,"o":"m 599 757 b 207 957 519 889 360 943 l 157 960 b 75 960 129 961 101 961 b 99 822 -24 954 8 822 b 132 431 110 692 121 561 b 94 428 118 429 106 428 b 82 289 -3 425 -17 286 b 144 293 101 289 122 290 b 165 60 151 215 158 138 b 318 83 174 -29 326 -10 b 297 321 311 163 304 242 b 600 756 515 382 739 525 z m 285 463 l 285 463 b 211 440 267 456 243 447 b 208 446 204 439 203 443 b 282 497 240 464 264 482 b 257 806 274 600 265 703 b 421 740 315 796 375 778 b 286 463 576 615 436 515 z "},"q":{"ha":606,"x_min":0,"x_max":0,"o":"m 586 103 b 553 183 576 131 565 157 b 579 499 588 288 586 413 b 290 965 565 664 511 938 b 208 881 222 974 193 922 b 169 846 194 869 181 858 b 69 678 96 765 69 678 b 14 363 31 572 17 454 b 375 4 8 169 119 -61 b 447 38 403 11 426 22 b 583 103 483 -36 617 15 z m 407 442 b 268 383 360 517 217 465 b 374 200 306 324 342 263 b 386 174 376 196 385 179 b 397 103 392 157 394 143 b 392 100 397 99 393 97 b 357 160 381 124 369 144 b 310 125 344 144 329 132 b 186 406 176 81 181 347 b 294 754 194 503 222 668 b 304 768 294 754 306 767 b 261 838 292 793 276 815 b 268 843 254 847 264 844 b 333 776 293 832 333 776 b 358 725 343 760 351 742 b 413 492 392 653 404 569 b 417 431 414 475 415 454 b 413 439 415 433 414 436 z "},"r":{"ha":697,"x_min":0,"x_max":0,"o":"m 678 100 b 525 401 639 206 583 306 b 654 708 626 467 690 565 b 228 958 604 903 406 950 b 140 960 215 960 156 960 b 128 821 43 960 29 821 b 140 821 132 821 136 821 b 144 429 146 690 147 560 b 96 426 126 428 110 426 b 83 288 -1 425 -15 286 b 140 290 101 288 121 289 b 122 78 136 219 131 149 b 276 64 113 -12 267 -26 b 294 313 285 146 290 229 b 389 338 326 319 358 328 b 539 42 446 243 500 144 b 678 100 569 -42 711 10 z m 299 458 b 294 783 300 567 299 675 b 224 810 275 792 250 801 b 224 814 221 811 221 814 b 292 815 249 818 292 815 b 481 724 368 807 442 785 b 296 457 574 579 439 497 z "},"s":{"ha":719,"x_min":0,"x_max":0,"o":"m 356 636 b 169 749 328 650 176 707 b 311 776 160 811 275 796 b 485 601 381 742 442 665 b 631 643 524 542 651 554 b 640 869 613 717 622 797 b 493 919 663 960 515 1006 b 483 874 489 904 486 889 b 540 746 483 874 532 832 b 533 743 540 740 536 739 b 475 836 506 794 493 815 b 272 939 421 894 347 929 b 38 672 135 957 -60 815 b 300 506 94 590 214 546 b 539 186 394 461 603 324 b 213 300 463 21 254 201 b 171 501 188 361 172 435 b 17 515 168 592 14 606 b 185 85 21 363 67 189 b 690 150 318 -33 625 -58 b 354 639 763 378 528 556 z "},"t":{"ha":729,"x_min":0,"x_max":0,"o":"m 669 853 b 486 897 608 878 547 894 b 376 894 457 899 406 899 b 368 901 369 893 363 896 b 433 928 386 918 433 928 b 307 908 404 974 313 972 b 307 888 307 901 307 894 b 58 817 224 874 140 849 b 14 761 18 799 14 785 b 39 549 14 692 19 615 b 176 569 60 475 183 488 b 154 722 172 621 160 671 b 300 763 196 736 294 761 b 290 583 299 743 290 624 b 286 388 290 518 289 453 b 279 97 285 356 283 185 b 279 72 279 89 279 81 b 425 61 274 -10 414 -21 b 444 783 458 294 446 546 b 574 761 506 783 571 763 b 563 681 571 733 569 711 b 532 569 560 668 550 619 b 665 526 504 492 632 458 b 715 796 704 606 715 732 b 671 858 715 819 704 844 z "},"u":{"ha":693,"x_min":0,"x_max":0,"o":"m 617 908 b 465 885 593 994 440 975 b 525 360 511 717 551 535 b 289 144 508 249 432 82 b 215 807 97 228 169 603 b 144 799 196 801 172 797 b 144 803 142 799 142 801 b 219 838 178 814 201 825 b 256 888 236 850 253 875 b 219 963 265 921 257 953 b 126 946 192 969 156 964 b 61 838 86 921 65 854 b 292 1 3 568 -78 58 b 614 911 786 -75 688 639 z "},"v":{"ha":690,"x_min":0,"x_max":0,"o":"m 528 913 b 350 389 474 736 415 561 b 343 242 349 385 365 319 b 335 239 342 235 335 233 b 324 326 332 275 326 307 b 172 897 279 518 229 708 b 21 874 146 982 -7 963 b 229 54 103 604 172 331 b 378 40 244 -17 350 -22 b 678 860 497 306 593 582 b 532 910 706 949 558 994 z "},"w":{"ha":803,"x_min":0,"x_max":0,"o":"m 653 910 b 576 528 629 783 601 656 b 590 382 576 528 603 433 b 581 385 589 376 583 375 b 471 757 568 422 496 656 b 422 807 471 786 449 803 b 339 772 389 815 350 803 b 247 426 338 769 258 475 b 151 914 219 576 179 765 b 18 896 138 988 8 974 b 147 68 50 629 106 333 b 174 17 144 51 169 19 b 225 4 188 7 207 3 b 290 43 254 4 282 17 b 406 444 325 151 404 439 b 536 24 418 401 488 132 b 613 8 547 0 586 1 b 664 65 642 14 665 33 b 793 901 706 333 761 632 b 657 914 801 978 671 988 z "},"x":{"ha":625,"x_min":0,"x_max":0,"o":"m 481 931 b 314 650 469 913 346 718 b 286 592 299 617 288 594 b 275 604 282 585 269 558 b 290 681 278 631 283 656 b 147 922 242 761 193 842 b 21 874 110 989 -17 951 b 225 488 83 743 154 615 b 44 88 225 488 97 222 b 122 1 24 36 71 1 b 317 297 163 1 286 244 b 428 35 354 228 392 104 b 497 1 442 7 469 0 b 565 89 543 3 586 35 b 406 488 526 186 461 367 b 606 874 406 488 536 747 b 482 932 640 939 517 988 z "},"y":{"ha":713,"x_min":0,"x_max":0,"o":"m 560 931 b 401 728 499 869 446 801 l 375 688 b 383 582 383 665 393 626 b 378 582 383 579 379 579 b 347 656 368 607 360 632 b 347 656 347 656 347 656 b 151 929 288 750 221 840 b 29 854 99 994 -31 931 b 279 488 39 842 192 640 b 246 397 260 450 249 407 b 203 33 226 315 189 136 b 261 -3 206 11 233 -3 b 344 47 303 -3 339 3 b 678 842 376 329 483 649 b 557 926 743 907 615 985 z "},"z":{"ha":796,"x_min":0,"x_max":0,"o":"m 781 104 b 707 361 763 192 733 276 b 599 471 690 417 671 479 b 543 413 564 467 543 440 b 607 183 543 408 601 207 l 244 160 b 617 868 382 378 493 647 b 617 910 625 883 624 897 b 539 958 610 922 600 961 b 146 921 532 958 168 925 b 100 869 121 917 100 900 b 107 685 99 800 104 754 b 236 664 110 614 218 596 b 235 779 243 692 238 751 b 221 863 233 788 233 807 b 226 865 219 865 224 868 b 258 796 246 844 254 821 l 422 808 b 135 281 422 808 214 415 b 19 82 119 257 19 83 b 100 -1 -10 33 50 -6 b 100 -1 100 -1 100 -1 b 696 28 296 10 504 36 b 750 42 719 26 738 32 b 775 103 769 53 781 74 z "},"{":{"ha":286,"x_min":0,"x_max":0,"o":"m 251 92 b 207 281 199 136 208 218 b 179 451 206 338 204 399 b 206 608 200 500 204 553 b 244 800 207 664 194 758 b 151 889 314 858 217 926 b 72 786 110 865 86 828 b 140 894 78 833 96 874 b 138 900 144 896 142 901 b 56 768 75 889 60 819 b 56 706 54 747 54 726 b 56 706 56 706 56 706 b 31 488 49 640 67 547 b 24 421 13 472 6 449 b 156 6 106 294 -6 97 b 249 89 211 -26 313 36 z "},"}":{"ha":288,"x_min":0,"x_max":0,"o":"m 263 483 b 131 899 181 610 292 807 b 38 815 75 931 -26 868 b 79 735 63 794 74 765 b 25 817 68 765 51 793 b 17 811 21 821 11 817 b 82 629 64 760 76 694 b 82 625 82 628 82 626 b 110 454 83 568 85 507 b 83 297 89 406 85 353 b 44 106 82 242 94 147 b 138 17 -25 47 72 -21 b 171 42 150 24 161 32 b 133 7 161 28 149 15 b 138 0 128 4 133 -1 b 222 136 189 21 211 79 b 233 199 228 157 231 178 b 258 417 240 264 222 357 b 265 483 276 432 283 456 z "},"~":{"ha":581,"x_min":0,"x_max":0,"o":"m 417 450 b 453 401 432 438 453 422 b 447 400 453 399 450 400 b 368 454 426 404 400 424 b 243 518 331 483 290 508 b 21 433 163 535 79 482 b 26 421 -1 415 24 419 b 118 474 57 435 86 460 b 117 468 147 486 144 485 b 42 399 88 451 63 428 b 182 314 -18 314 124 265 b 307 297 229 354 247 324 b 538 335 383 264 479 268 b 411 449 611 421 489 501 z "},"":{"ha":388,"x_min":0,"x_max":0,"o":""},"":{"ha":226,"x_min":0,"x_max":0,"o":"m 174 264 b 169 426 172 318 169 372 b 178 592 169 482 181 536 b 171 603 178 597 175 601 b 175 636 172 614 174 625 b 31 649 183 721 39 735 b 35 51 13 450 4 250 b 168 74 47 -28 176 -11 b 165 103 167 83 167 93 b 165 99 165 101 165 100 b 175 60 167 90 171 74 b 190 64 179 46 190 54 b 186 101 190 76 188 90 b 176 263 178 153 178 210 z m 100 728 b 189 763 131 717 178 726 b 214 885 201 800 215 844 b 149 957 213 925 186 953 b 113 950 136 958 124 956 b 72 889 106 947 82 932 b 57 793 65 857 51 819 b 101 729 56 764 74 739 z "},"":{"ha":510,"x_min":0,"x_max":0,"o":"m 328 613 b 360 496 349 579 351 533 b 451 488 369 453 436 453 b 460 506 456 493 458 499 b 494 688 468 567 479 628 b 403 706 506 733 414 750 b 399 681 401 697 400 689 b 388 617 397 657 393 633 b 385 617 388 615 385 615 b 383 692 382 642 386 667 b 383 692 383 692 383 692 b 342 719 371 703 357 713 b 357 843 350 772 356 815 b 274 842 360 893 279 888 b 269 821 272 835 271 828 b 268 853 269 832 268 843 b 257 853 268 860 257 860 b 258 803 256 836 258 819 b 253 749 258 785 254 767 b 253 744 253 747 253 746 b 249 744 251 744 250 744 b 25 464 110 733 50 582 b 138 143 0 344 19 200 b 133 122 136 135 135 128 b 103 38 126 93 107 68 b 108 38 103 35 107 35 b 126 79 114 51 121 65 b 118 50 124 69 121 60 b 204 31 101 -4 189 -17 b 229 124 211 53 219 85 b 464 226 314 126 403 178 b 396 296 515 268 440 332 b 250 218 356 263 304 229 b 328 621 276 340 306 493 b 332 617 329 619 331 618 z m 157 550 b 232 647 174 589 199 624 b 240 651 235 649 238 650 b 185 326 222 535 192 354 b 171 268 182 314 176 293 b 156 550 118 347 122 457 z "},"":{"ha":601,"x_min":0,"x_max":0,"o":"m 399 221 b 401 217 400 219 400 218 b 390 231 399 222 394 226 b 383 228 388 232 382 231 b 404 146 399 203 403 175 b 404 126 404 140 404 133 b 299 129 368 129 332 129 b 265 129 288 129 276 129 b 188 122 239 122 211 119 b 188 125 186 122 186 125 b 221 133 211 132 197 126 b 229 138 224 135 226 136 b 258 322 246 185 251 254 b 283 322 267 322 275 322 b 292 429 363 318 371 419 b 267 432 283 431 275 432 l 307 757 b 446 706 346 785 417 753 b 393 597 456 665 435 626 b 396 592 390 594 393 590 b 454 646 422 600 443 621 b 421 606 450 632 439 618 b 496 515 353 556 435 471 b 521 817 601 593 621 722 b 200 825 433 899 289 911 b 182 792 190 818 183 807 l 132 450 b 128 429 131 443 129 436 b 86 422 114 428 100 425 b 58 336 31 413 29 361 b 104 331 74 335 89 333 b 104 328 107 331 107 328 b 79 325 96 326 88 325 b 71 318 75 324 72 321 b 74 315 71 317 72 315 b 114 317 86 314 100 315 b 114 300 114 311 114 306 b 110 267 113 289 111 278 b 96 181 103 239 99 210 b 39 108 86 156 69 132 b 14 58 13 99 7 78 b 99 15 19 25 63 -3 b 481 8 222 39 357 25 b 488 8 483 8 485 8 b 554 50 518 3 550 14 b 511 261 561 119 542 199 b 399 228 482 319 369 299 z m 419 131 b 417 160 418 142 417 151 b 414 183 417 167 415 175 b 426 129 419 165 424 147 b 418 129 424 129 421 129 z "},"":{"ha":633,"x_min":0,"x_max":0,"o":"m 586 353 b 563 451 646 361 617 456 b 538 450 554 450 546 450 b 575 458 550 453 563 457 b 572 472 583 460 579 474 b 513 458 551 469 532 463 b 447 453 492 454 468 454 b 371 449 421 450 396 449 b 371 451 371 450 371 450 b 378 458 374 453 376 456 b 575 850 464 583 525 718 b 476 864 588 882 490 893 b 353 626 438 785 396 706 b 358 585 358 614 358 599 b 344 594 354 589 350 592 b 332 628 339 606 335 617 b 231 861 300 706 261 783 b 129 853 217 896 118 890 b 133 836 131 847 132 842 b 111 863 125 850 117 863 b 111 865 114 863 114 865 b 111 865 111 865 111 865 b 107 863 110 865 107 864 b 113 850 107 858 110 854 b 140 800 122 833 131 817 b 149 783 143 794 146 789 b 231 571 174 713 203 642 b 231 571 231 571 231 571 b 260 471 240 538 253 504 b 260 454 260 465 260 460 b 160 456 226 454 193 454 b 53 472 124 457 89 474 b 54 467 50 472 51 467 b 108 456 72 464 90 460 b 75 460 97 457 86 458 b 75 354 7 467 15 360 b 260 343 136 349 197 344 b 256 306 258 331 257 318 b 61 289 190 303 125 297 b 63 182 1 281 -4 174 b 96 186 74 183 85 185 b 42 175 78 182 60 178 b 40 169 39 175 38 169 b 146 188 76 168 110 185 b 242 193 178 190 210 192 b 238 156 240 181 239 168 b 215 50 233 119 215 88 b 221 51 215 47 221 49 b 236 103 225 69 231 86 b 232 69 235 92 233 81 b 335 57 221 3 325 -1 b 353 201 342 104 347 153 b 432 200 379 201 406 201 b 497 196 453 199 476 200 b 558 183 518 192 538 185 b 561 197 565 182 569 196 b 524 204 549 199 536 201 b 549 204 532 204 540 204 b 569 303 603 201 629 296 b 358 315 500 311 429 315 b 358 353 358 328 358 340 b 578 372 432 356 506 361 z "},"":{"ha":338,"x_min":0,"x_max":0,"o":"m 63 876 b 18 836 43 875 26 857 b 24 790 14 825 11 801 b 57 768 31 783 42 776 b 108 768 69 761 96 761 b 122 854 160 796 129 846 b 64 875 108 872 85 876 z m 310 854 b 251 875 296 872 272 876 b 207 835 232 874 215 856 b 213 789 203 824 200 800 b 246 767 219 782 231 775 b 297 767 258 760 285 760 b 311 853 349 794 318 844 z "},"":{"ha":897,"x_min":0,"x_max":0,"o":"m 838 696 b 574 890 803 747 699 860 b 256 849 449 921 304 871 b 50 632 160 806 89 726 b 63 211 26 594 -26 344 b 482 60 157 69 396 46 b 864 418 660 88 819 246 b 835 694 888 511 892 611 z m 343 340 b 518 381 392 274 493 311 b 590 354 533 422 607 399 b 343 246 557 261 433 204 b 251 518 242 292 226 422 b 464 704 272 603 356 747 b 517 665 485 696 501 682 b 540 631 524 657 532 644 b 543 633 542 629 543 631 b 524 689 542 663 531 681 b 601 681 533 732 608 725 b 574 540 594 633 585 586 b 499 547 564 503 507 518 b 467 615 492 571 481 596 b 340 539 415 685 361 588 b 344 340 317 483 306 393 z "},"":{"ha":625,"x_min":0,"x_max":0,"o":"m 600 107 b 425 308 549 175 492 250 b 351 350 404 326 381 342 b 354 358 344 351 349 360 b 406 342 372 356 389 350 b 463 393 425 358 444 375 b 421 331 447 374 433 353 b 433 322 425 328 429 325 b 492 410 451 353 469 382 b 544 478 510 432 529 453 b 578 515 556 490 567 503 b 524 588 614 557 565 596 b 528 592 525 589 526 590 b 519 597 533 597 524 601 b 415 492 481 567 446 531 b 276 368 371 449 325 406 b 283 285 242 342 246 304 b 425 144 339 254 385 192 b 501 50 451 114 476 82 b 596 108 539 0 639 51 z m 303 149 b 250 217 288 174 268 194 b 192 304 228 244 210 274 b 179 296 188 301 183 299 b 221 235 192 275 206 254 b 164 286 203 253 183 269 b 113 269 147 278 131 272 b 110 278 107 268 103 276 b 183 319 139 286 163 301 b 358 521 250 378 307 453 b 264 579 401 578 301 629 b 188 485 239 547 214 515 b 44 344 147 438 101 375 b 38 261 7 325 3 288 b 176 138 86 224 132 181 b 281 32 207 99 242 63 b 289 38 285 28 294 32 b 285 42 288 39 286 40 b 339 114 326 33 375 72 b 306 151 328 126 317 139 z "},"":{"ha":897,"x_min":0,"x_max":0,"o":"m 421 649 b 386 647 421 649 399 650 b 386 646 385 647 385 646 b 422 632 400 642 413 636 b 424 469 424 578 425 524 l 432 468 b 518 600 501 489 563 531 b 422 646 499 631 461 642 z m 839 693 b 575 888 804 744 700 857 b 257 846 450 918 306 868 b 51 629 161 803 90 724 b 64 208 28 592 -25 342 b 483 57 158 67 397 43 b 865 415 661 85 821 243 b 836 692 889 508 893 608 z m 543 253 b 467 403 524 306 496 356 b 425 393 453 399 439 396 b 413 247 422 344 418 296 b 404 251 413 243 404 249 b 332 274 386 224 328 233 b 340 382 336 310 339 346 b 313 381 331 381 321 381 b 318 451 263 379 269 450 b 343 453 325 451 333 451 b 340 651 344 519 343 586 b 333 651 338 651 335 651 b 339 722 283 651 290 722 b 383 721 346 722 376 722 b 599 594 474 717 574 693 b 533 439 617 522 585 472 b 610 288 563 390 590 340 b 539 257 626 242 554 215 z "},"":{"ha":321,"x_min":0,"x_max":0,"o":"m 290 844 b 193 894 268 878 232 893 b 100 894 164 907 132 908 b 32 824 68 881 44 854 b 15 732 17 799 11 768 b 131 625 21 676 71 619 b 131 628 133 625 133 628 b 40 706 85 636 54 667 b 175 635 67 658 121 626 b 300 753 233 644 286 696 b 292 844 308 783 310 817 z m 174 715 b 114 751 149 715 114 725 b 132 811 114 758 107 790 b 200 801 151 828 190 815 b 172 717 219 774 194 722 z "},"":{"ha":207,"x_min":0,"x_max":0,"o":"m 99 860 b 94 856 97 858 96 857 b 94 888 97 864 101 883 b 44 797 85 894 92 850 b 36 718 32 786 -12 724 b 188 822 85 713 165 769 b 97 863 210 874 121 913 z "},"":{"ha":625,"x_min":0,"x_max":0,"o":"m 339 283 b 346 367 376 303 381 340 b 207 490 297 404 251 447 b 104 596 176 529 142 565 b 96 590 100 600 90 596 b 100 586 97 589 99 588 b 46 514 58 594 10 556 b 79 476 57 501 68 489 b 132 408 94 451 114 431 b 190 321 154 381 172 351 b 203 329 194 324 199 326 b 161 390 190 350 176 371 b 218 339 179 372 199 356 b 269 356 235 347 251 353 b 272 347 275 357 279 349 b 199 306 243 339 219 324 b 24 104 132 247 75 172 b 118 46 -19 47 81 -4 b 194 140 143 78 168 110 b 336 281 235 188 281 250 z m 576 339 b 435 479 521 369 475 432 b 358 574 408 510 383 542 b 264 515 321 624 221 572 b 439 314 315 447 372 372 b 513 272 460 296 483 281 b 510 264 519 271 515 263 b 458 281 492 267 475 272 b 401 229 439 264 419 247 b 443 292 417 249 431 269 b 431 300 439 294 435 297 b 372 213 413 269 394 240 b 319 144 354 190 335 169 b 286 107 308 132 297 119 b 340 35 250 65 299 26 b 336 31 339 33 338 32 b 344 25 331 25 340 21 b 447 131 382 56 417 92 b 586 254 492 174 538 217 b 579 338 621 281 617 318 z "},"":{"ha":667,"x_min":0,"x_max":0,"o":"m 424 789 b 493 844 451 790 483 815 b 492 906 497 856 496 896 b 458 947 483 926 465 944 b 400 946 442 954 421 954 b 367 925 388 942 376 935 b 346 892 357 915 350 904 b 339 858 343 881 340 869 b 350 817 338 842 343 829 b 426 788 364 790 396 785 z m 611 390 b 481 325 578 432 449 393 b 458 163 506 272 531 214 b 268 133 400 122 325 119 b 219 192 249 149 232 168 b 228 354 193 240 186 294 b 275 385 238 364 263 381 b 436 397 350 406 357 397 b 511 725 574 396 529 654 b 360 667 492 801 338 754 b 382 561 368 632 378 597 b 433 482 382 561 436 544 b 389 528 433 481 422 514 b 301 529 371 535 344 538 b 19 235 156 499 35 389 b 383 -3 -1 32 210 -35 b 613 389 583 35 733 238 z m 182 292 b 194 200 179 260 185 228 b 222 149 201 181 211 164 b 182 290 175 175 163 225 z "},"":{"ha":703,"x_min":0,"x_max":0,"o":"m 290 1074 b 294 1069 292 1072 293 1071 b 263 1068 286 1072 267 1075 b 358 1025 257 1057 301 1068 b 436 1022 369 1014 435 974 b 321 1165 438 1071 375 1147 b 288 1072 268 1183 236 1092 z m 615 274 b 617 413 703 283 713 413 b 571 413 601 413 586 413 b 433 819 526 551 467 718 b 378 760 421 808 404 793 b 372 764 375 757 371 760 b 421 857 393 815 413 846 b 431 899 436 875 433 890 b 282 913 413 967 311 978 b 88 381 206 740 139 563 b 67 378 81 379 74 379 b 51 244 -14 365 -6 271 b 14 74 38 188 25 131 b 168 60 -3 -15 151 -29 b 190 160 175 93 182 126 b 171 28 182 117 176 72 b 190 26 169 17 189 15 b 231 253 199 104 211 179 b 456 267 306 260 381 264 b 525 53 478 194 501 124 b 678 78 553 -31 707 -11 b 615 274 657 143 636 208 z m 281 399 b 285 424 281 399 285 417 b 274 429 286 436 279 439 b 257 397 268 421 257 397 b 344 650 283 482 313 567 b 417 407 368 568 392 488 b 283 400 372 406 328 403 z "},"":{"ha":703,"x_min":0,"x_max":0,"o":"m 618 274 b 619 413 706 283 715 413 b 574 413 604 413 589 413 b 436 819 529 551 469 718 b 381 760 424 808 407 793 b 375 764 378 757 374 760 b 424 857 396 815 415 846 b 433 899 439 875 436 890 b 285 913 415 967 314 978 b 90 381 208 740 142 563 b 69 378 83 379 76 379 b 54 244 -11 365 -3 271 b 17 74 40 188 28 131 b 171 60 0 -15 154 -29 b 193 160 178 93 185 126 b 174 28 185 117 179 72 b 193 26 172 17 192 15 b 233 253 201 104 214 179 b 458 267 308 260 383 264 b 528 53 481 194 504 124 b 681 78 556 -31 710 -11 b 618 274 660 143 639 208 z m 283 399 b 288 424 283 399 288 417 b 276 429 289 436 282 439 b 260 397 271 421 260 397 b 347 650 286 482 315 567 b 419 407 371 568 394 488 b 286 400 375 406 331 403 z m 376 999 b 528 1103 425 993 506 1050 b 438 1143 550 1154 461 1193 b 433 1139 436 1142 435 1140 b 433 1171 436 1147 440 1167 b 383 1081 424 1178 431 1133 b 375 1001 371 1069 326 1007 z "},"":{"ha":703,"x_min":0,"x_max":0,"o":"m 618 274 b 619 413 706 283 715 413 b 574 413 604 413 589 413 b 436 819 529 551 469 718 b 381 760 424 808 407 793 b 375 764 378 757 374 760 b 424 857 396 815 415 846 b 433 899 439 875 436 890 b 285 913 415 967 314 978 b 90 381 208 740 142 563 b 69 378 83 379 76 379 b 54 244 -11 365 -3 271 b 17 74 40 188 28 131 b 171 60 0 -15 154 -29 b 193 160 178 93 185 126 b 174 28 185 117 179 72 b 193 26 172 17 192 15 b 233 253 201 104 214 179 b 458 267 308 260 383 264 b 528 53 481 194 504 124 b 681 78 556 -31 710 -11 b 618 274 660 143 639 208 z m 283 399 b 288 424 283 399 288 417 b 276 429 289 436 282 439 b 260 397 271 421 260 397 b 347 650 286 482 315 567 b 419 407 371 568 394 488 b 286 400 375 406 331 403 z m 242 1050 b 282 1076 256 1057 271 1065 b 265 1056 276 1069 271 1063 b 250 1039 261 1051 246 1035 b 269 993 231 1018 249 993 b 332 1021 297 993 317 1006 b 385 1097 365 1054 379 1081 b 394 1092 388 1104 392 1115 b 386 1046 399 1064 383 1053 b 447 999 389 1040 411 999 b 492 1049 518 999 524 1021 b 407 1154 457 1079 429 1114 b 363 1165 400 1168 378 1172 b 356 1167 361 1168 357 1169 b 299 1099 342 1140 318 1119 b 235 1051 288 1086 246 1057 b 244 1050 233 1051 229 1040 z "},"":{"ha":703,"x_min":0,"x_max":0,"o":"m 618 274 b 619 413 706 283 715 413 b 574 413 604 413 589 413 b 436 819 529 551 469 718 b 381 760 424 808 407 793 b 375 764 378 757 374 760 b 424 857 396 815 415 846 b 433 899 439 875 436 890 b 285 913 415 967 314 978 b 90 381 208 740 142 563 b 69 378 83 379 76 379 b 54 244 -11 365 -3 271 b 17 74 40 188 28 131 b 171 60 0 -15 154 -29 b 193 160 178 93 185 126 b 174 28 185 117 179 72 b 193 26 172 17 192 15 b 233 253 201 104 214 179 b 458 267 308 260 383 264 b 528 53 481 194 504 124 b 681 78 556 -31 710 -11 b 618 274 660 143 639 208 z m 283 399 b 288 424 283 399 288 417 b 276 429 289 436 282 439 b 260 397 271 421 260 397 b 347 650 286 482 315 567 b 419 407 371 568 394 488 b 286 400 375 406 331 403 z m 201 1096 b 254 1128 219 1104 236 1119 b 253 1124 271 1135 269 1133 b 208 1083 236 1114 221 1100 b 289 1035 174 1035 256 1007 b 363 1025 317 1058 328 1040 b 496 1047 407 1006 463 1008 b 422 1114 539 1097 468 1144 b 443 1086 431 1107 443 1099 b 440 1085 443 1085 442 1085 b 394 1117 428 1088 413 1099 b 321 1153 372 1133 349 1147 b 193 1103 275 1163 226 1132 b 197 1096 181 1092 196 1094 z "},"":{"ha":703,"x_min":0,"x_max":0,"o":"m 618 274 b 619 413 706 283 715 413 b 574 413 604 413 589 413 b 436 819 529 551 469 718 b 381 760 424 808 407 793 b 375 764 378 757 374 760 b 424 857 396 815 415 846 b 433 899 439 875 436 890 b 285 913 415 967 314 978 b 90 381 208 740 142 563 b 69 378 83 379 76 379 b 54 244 -11 365 -3 271 b 17 74 40 188 28 131 b 171 60 0 -15 154 -29 b 193 160 178 93 185 126 b 174 28 185 117 179 72 b 193 26 172 17 192 15 b 233 253 201 104 214 179 b 457 267 307 260 382 264 b 526 53 479 194 503 124 b 679 78 554 -31 708 -11 b 617 274 658 143 638 208 z m 282 399 b 286 424 282 399 286 417 b 275 429 288 436 281 439 b 258 397 269 421 258 397 b 346 650 285 482 314 567 b 418 407 369 568 393 488 b 285 400 374 406 329 403 z m 240 1032 b 292 1032 253 1025 279 1025 b 306 1118 343 1060 313 1110 b 247 1139 292 1136 268 1140 b 203 1099 228 1138 211 1119 b 208 1053 199 1088 196 1064 b 243 1031 215 1046 226 1039 z m 429 1031 b 481 1031 442 1024 468 1024 b 494 1117 532 1058 501 1108 b 436 1138 481 1135 457 1139 b 392 1097 417 1136 400 1118 b 397 1051 388 1086 385 1063 b 431 1029 404 1044 415 1038 z "},"":{"ha":703,"x_min":0,"x_max":0,"o":"m 322 982 b 322 985 325 982 325 985 b 232 1063 276 993 246 1024 b 367 992 258 1015 313 983 b 492 1110 425 1001 478 1053 b 483 1201 500 1140 501 1174 b 386 1251 461 1235 425 1250 b 293 1251 357 1264 325 1265 b 225 1181 261 1238 238 1211 b 208 1089 210 1156 204 1125 b 324 983 214 1033 264 978 z m 324 1169 b 392 1160 343 1186 382 1174 b 364 1075 411 1132 386 1081 b 304 1111 339 1075 304 1085 b 322 1171 304 1118 297 1150 z m 618 276 b 619 415 706 286 715 415 b 574 415 604 415 589 415 b 436 822 529 554 469 721 b 381 763 424 811 407 796 b 375 767 378 760 374 763 b 424 860 396 818 415 849 b 433 901 439 878 436 893 b 285 915 415 969 314 981 b 90 383 208 743 142 565 b 69 381 83 382 76 382 b 54 247 -11 368 -3 274 b 17 76 40 190 28 133 b 171 63 0 -12 154 -26 b 193 163 178 96 185 129 b 174 31 185 119 179 75 b 193 29 172 19 192 18 b 233 256 201 107 214 182 b 458 269 308 263 383 267 b 528 56 481 197 504 126 b 681 81 556 -28 710 -8 b 618 276 660 146 639 211 z m 283 401 b 288 426 283 401 288 419 b 276 432 289 439 282 442 b 260 400 271 424 260 400 b 347 653 286 485 315 569 b 419 410 371 571 394 490 b 286 403 375 408 331 406 z "},"":{"ha":1232,"x_min":0,"x_max":0,"o":"m 1215 99 b 1193 247 1203 147 1194 197 b 1039 274 1190 333 1050 350 b 1022 288 1039 274 1029 285 b 1013 271 1010 292 1011 278 b 1025 150 1019 231 1024 190 b 817 142 956 147 886 144 b 833 358 825 214 831 286 b 1050 378 906 363 978 369 b 1021 515 1150 389 1115 526 b 838 499 960 508 899 503 b 826 810 838 603 833 707 b 993 818 882 813 938 815 b 1047 882 1003 838 1019 860 b 1054 881 1051 886 1057 885 b 1026 817 1043 857 1032 840 b 1010 686 1017 774 1011 729 b 1164 672 1008 596 1163 582 b 1185 813 1165 719 1169 767 b 1197 846 1189 824 1193 835 b 1200 851 1201 854 1210 867 b 1143 961 1228 896 1203 963 b 796 946 1026 958 911 953 b 668 878 751 978 663 950 b 682 529 676 763 682 646 b 665 840 678 633 671 738 b 649 885 665 851 661 900 b 642 794 639 874 640 821 b 660 408 649 667 657 538 b 631 408 650 408 640 408 b 564 815 610 547 579 714 b 499 756 550 804 531 789 b 494 760 496 753 492 756 b 561 853 525 811 550 842 b 578 894 579 871 579 886 b 432 908 572 963 472 974 b 143 376 325 736 228 558 b 122 374 136 375 129 375 b 83 240 39 361 31 267 b 17 69 60 183 38 126 b 168 56 -15 -19 136 -33 b 208 156 181 89 194 122 b 167 24 193 113 179 68 b 186 22 164 13 183 11 b 265 249 208 100 233 175 b 490 263 340 256 415 260 b 521 49 500 190 510 119 b 663 24 531 -15 625 -18 b 724 -4 676 7 700 -3 b 743 -6 729 -6 736 -6 b 1151 11 879 0 1015 6 b 1213 92 1189 13 1222 56 z m 335 392 b 343 417 335 392 342 410 b 331 422 346 429 339 432 b 308 390 324 414 308 390 b 442 643 350 475 394 560 b 469 400 450 561 460 481 b 333 393 425 399 379 396 z m 657 271 b 654 204 657 249 656 226 b 646 271 651 226 649 249 b 658 274 650 271 654 272 z "},"":{"ha":744,"x_min":0,"x_max":0,"o":"m 501 508 b 482 450 492 489 489 469 b 460 393 476 431 467 413 b 496 326 451 365 471 338 b 592 351 529 311 571 321 b 626 501 617 389 643 457 b 503 510 608 547 526 557 z m 674 603 b 729 885 696 696 714 790 b 575 901 743 972 593 986 b 618 792 590 885 614 850 b 611 790 618 788 614 786 b 564 860 594 818 576 843 b 458 938 535 893 500 921 b 33 564 242 1022 76 732 b 218 15 -15 371 15 108 b 269 -1 235 8 251 3 b 249 -56 263 -19 256 -37 b 294 -119 238 -86 263 -118 b 347 -140 313 -119 342 -119 b 332 -169 351 -154 343 -164 b 247 -161 308 -182 269 -171 b 213 -247 188 -136 150 -222 b 428 -218 278 -274 378 -279 b 443 -93 454 -185 463 -132 b 369 -35 428 -64 400 -46 b 378 -10 372 -26 375 -18 b 379 -6 379 -8 379 -7 b 718 238 524 6 668 103 b 572 288 750 325 603 371 b 433 151 549 225 494 175 b 271 204 375 154 318 167 b 169 371 219 246 190 308 b 211 601 167 453 185 539 b 464 756 253 700 363 894 b 529 621 493 717 515 667 b 678 607 547 563 660 532 z m 256 188 b 372 136 290 160 331 144 b 221 204 315 132 260 151 b 189 269 207 224 197 246 b 257 189 207 239 229 211 z "},"":{"ha":604,"x_min":0,"x_max":0,"o":"m 588 99 b 565 247 575 147 567 197 b 411 274 563 333 422 350 b 394 288 411 274 401 285 b 385 271 382 292 383 278 b 397 150 392 231 396 190 b 189 142 328 147 258 144 b 206 358 197 214 203 286 b 422 378 278 363 350 369 b 393 515 522 389 488 526 b 210 499 332 508 271 503 b 199 810 210 603 206 707 b 365 818 254 813 310 815 b 419 882 375 838 392 860 b 426 881 424 886 429 885 b 399 817 415 857 404 840 b 382 686 389 774 383 729 b 536 672 381 596 535 582 b 557 813 538 719 542 767 b 569 846 561 824 565 835 b 572 851 574 854 582 867 b 515 961 600 896 575 963 b 168 946 399 958 283 953 b 40 878 124 978 35 950 b 54 529 49 763 54 646 b 38 840 50 633 43 738 b 21 885 38 851 33 900 b 14 794 11 874 13 821 b 24 93 26 561 44 326 b 25 89 24 92 25 90 b 22 72 24 83 24 78 b 94 -3 15 25 54 -1 b 114 -4 100 -4 107 -4 b 522 13 250 1 386 7 b 583 93 560 14 593 57 z m 175 1067 b 179 1063 176 1065 178 1064 b 147 1061 171 1065 151 1068 b 243 1018 142 1050 186 1061 b 321 1015 254 1007 319 967 b 206 1158 322 1064 260 1140 b 172 1065 153 1176 121 1085 z "},"":{"ha":604,"x_min":0,"x_max":0,"o":"m 588 99 b 565 247 575 147 567 197 b 411 274 563 333 422 350 b 394 288 411 274 401 285 b 385 271 382 292 383 278 b 397 150 392 231 396 190 b 189 142 328 147 258 144 b 206 358 197 214 203 286 b 422 378 278 363 350 369 b 393 515 522 389 488 526 b 210 499 332 508 271 503 b 199 810 210 603 206 707 b 365 818 254 813 310 815 b 419 882 375 838 392 860 b 426 881 424 886 429 885 b 399 817 415 857 404 840 b 382 686 389 774 383 729 b 536 672 381 596 535 582 b 557 813 538 719 542 767 b 569 846 561 824 565 835 b 572 851 574 854 582 867 b 515 961 600 896 575 963 b 168 946 399 958 283 953 b 40 878 124 978 35 950 b 54 529 49 763 54 646 b 38 840 50 633 43 738 b 21 885 38 851 33 900 b 14 794 11 874 13 821 b 24 93 26 561 44 326 b 25 89 24 92 25 90 b 22 72 24 83 24 78 b 94 -3 15 25 54 -1 b 114 -4 100 -4 107 -4 b 522 13 250 1 386 7 b 583 93 560 14 593 57 z m 296 992 b 447 1096 344 986 425 1043 b 357 1136 469 1147 381 1186 b 353 1132 356 1135 354 1133 b 353 1164 356 1140 360 1160 b 303 1074 343 1171 350 1126 b 294 994 290 1063 246 1000 z "},"":{"ha":604,"x_min":0,"x_max":0,"o":"m 588 99 b 565 247 575 147 567 197 b 411 274 563 333 422 350 b 394 288 411 274 401 285 b 385 271 382 292 383 278 b 397 150 392 231 396 190 b 189 142 328 147 258 144 b 206 358 197 214 203 286 b 422 378 278 363 350 369 b 393 515 522 389 488 526 b 210 499 332 508 271 503 b 199 810 210 603 206 707 b 365 818 254 813 310 815 b 419 882 375 838 392 860 b 426 881 424 886 429 885 b 399 817 415 857 404 840 b 382 686 389 774 383 729 b 536 672 381 596 535 582 b 557 813 538 719 542 767 b 569 846 561 824 565 835 b 572 851 574 854 582 867 b 515 961 600 896 575 963 b 168 946 399 958 283 953 b 40 878 124 978 35 950 b 54 529 49 763 54 646 b 38 840 50 633 43 738 b 21 885 38 851 33 900 b 14 794 11 874 13 821 b 24 93 26 561 44 326 b 25 89 24 92 25 90 b 22 72 24 83 24 78 b 94 -3 15 25 54 -1 b 114 -4 100 -4 107 -4 b 522 13 250 1 386 7 b 583 93 560 14 593 57 z m 172 1042 b 213 1068 186 1049 201 1057 b 196 1047 207 1061 201 1054 b 181 1031 192 1043 176 1026 b 200 985 161 1010 179 985 b 263 1013 228 985 247 997 b 315 1089 296 1046 310 1072 b 325 1083 318 1096 322 1107 b 317 1038 329 1056 314 1044 b 378 990 319 1032 342 990 b 422 1040 449 990 454 1013 b 338 1146 388 1071 360 1106 b 293 1157 331 1160 308 1164 b 286 1158 292 1160 288 1161 b 229 1090 272 1132 249 1111 b 165 1043 218 1078 176 1049 b 175 1042 164 1043 160 1032 z "},"":{"ha":604,"x_min":0,"x_max":0,"o":"m 588 99 b 565 247 575 147 567 197 b 411 274 563 333 422 350 b 394 288 411 274 401 285 b 385 271 382 292 383 278 b 397 150 392 231 396 190 b 189 142 328 147 258 144 b 206 358 197 214 203 286 b 422 378 278 363 350 369 b 393 515 522 389 488 526 b 210 499 332 508 271 503 b 199 810 210 603 206 707 b 365 818 254 813 310 815 b 419 882 375 838 392 860 b 426 881 424 886 429 885 b 399 817 415 857 404 840 b 382 686 389 774 383 729 b 536 672 381 596 535 582 b 557 813 538 719 542 767 b 569 846 561 824 565 835 b 572 851 574 854 582 867 b 515 961 600 896 575 963 b 168 946 399 958 283 953 b 40 878 124 978 35 950 b 54 529 49 763 54 646 b 38 840 50 633 43 738 b 21 885 38 851 33 900 b 14 794 11 874 13 821 b 24 93 26 561 44 326 b 25 89 24 92 25 90 b 22 72 24 83 24 78 b 94 -3 15 25 54 -1 b 114 -4 100 -4 107 -4 b 522 13 250 1 386 7 b 583 93 560 14 593 57 z m 185 1025 b 236 1025 197 1018 224 1018 b 250 1111 288 1053 257 1103 b 192 1132 236 1129 213 1133 b 147 1092 172 1131 156 1113 b 153 1046 143 1081 140 1057 b 186 1024 160 1039 171 1032 z m 372 1024 b 424 1024 385 1017 411 1017 b 438 1110 475 1051 444 1101 b 379 1131 424 1128 400 1132 b 335 1090 360 1129 343 1111 b 340 1044 331 1079 328 1056 b 374 1022 347 1038 358 1031 z "},"":{"ha":201,"x_min":0,"x_max":0,"o":"m 168 897 b 43 936 167 960 76 976 b 24 929 35 940 24 939 b 18 22 4 628 40 325 b 44 24 17 7 44 22 b 176 58 82 -15 169 -6 b 167 897 201 288 168 857 z m 146 1022 b 31 1165 147 1071 85 1147 b -3 1072 -22 1183 -54 1092 b 1 1068 -1 1071 0 1069 b -31 1067 -7 1071 -26 1074 b 65 1024 -36 1056 8 1067 b 143 1021 76 1013 142 972 z "},"":{"ha":200,"x_min":0,"x_max":0,"o":"m 39 938 b 19 931 31 942 19 940 b 14 24 0 629 36 326 b 40 25 13 8 40 24 b 172 60 78 -14 165 -4 b 163 899 197 289 164 858 b 38 938 161 961 71 978 z m 139 1142 b 135 1138 138 1140 136 1139 b 135 1169 138 1146 142 1165 b 85 1079 125 1176 132 1132 b 76 1000 72 1068 28 1006 b 228 1104 125 994 206 1051 b 138 1144 250 1156 161 1194 z "},"":{"ha":208,"x_min":0,"x_max":0,"o":"m 46 938 b 26 931 38 942 26 940 b 21 24 7 629 43 326 b 47 25 19 8 47 24 b 179 60 85 -14 172 -4 b 169 899 204 289 171 858 b 44 938 168 961 78 978 z m 224 1050 b 139 1156 189 1081 161 1115 b 94 1167 132 1169 110 1174 b 88 1168 93 1169 89 1171 b 31 1100 74 1142 50 1121 b -33 1053 19 1088 -22 1058 b -24 1051 -35 1053 -39 1042 b 17 1078 -10 1058 6 1067 b 0 1057 11 1071 6 1064 b -15 1040 -4 1053 -19 1036 b 4 994 -35 1019 -17 994 b 67 1022 32 994 51 1007 b 119 1099 100 1056 114 1082 b 129 1093 122 1106 126 1117 b 121 1047 133 1065 118 1054 b 182 1000 124 1042 146 1000 b 226 1050 253 1000 258 1022 z "},"":{"ha":213,"x_min":0,"x_max":0,"o":"m 47 938 b 28 931 39 942 28 940 b 22 24 8 629 44 326 b 49 25 21 8 49 24 b 181 60 86 -14 174 -4 b 171 899 206 289 172 858 b 46 938 169 961 79 978 z m 58 1119 b 0 1140 44 1138 21 1142 b -44 1100 -19 1139 -36 1121 b -39 1054 -49 1089 -51 1065 b -6 1032 -32 1047 -21 1040 b 46 1032 7 1025 33 1025 b 60 1118 97 1060 67 1110 z m 246 1118 b 188 1139 232 1136 208 1140 b 143 1099 168 1138 151 1119 b 149 1053 139 1088 136 1064 b 182 1031 156 1046 167 1039 b 233 1031 194 1024 221 1024 b 247 1117 285 1058 254 1108 z "},"":{"ha":688,"x_min":0,"x_max":0,"o":"m 667 581 b 213 953 628 788 414 922 b 140 963 199 956 150 963 b 67 882 99 960 58 932 b 100 535 86 768 97 651 b 54 522 85 531 69 526 b 76 403 -14 501 11 385 b 101 411 85 406 93 408 b 67 76 99 299 88 186 b 97 13 61 46 75 24 b 158 1 121 1 150 1 b 667 581 419 19 719 303 z m 254 569 b 257 557 256 565 256 561 b 257 557 257 557 257 557 b 257 569 257 561 257 565 z m 247 168 b 239 164 244 167 242 165 b 258 429 251 251 257 340 b 275 429 264 429 269 429 b 249 167 281 339 275 249 z m 282 183 b 301 426 303 260 307 343 b 335 418 313 425 324 422 b 375 532 397 397 442 504 b 401 524 383 529 392 526 b 407 535 407 522 414 531 b 292 556 371 557 331 558 b 283 556 289 556 286 556 b 240 751 272 624 257 690 b 240 764 240 756 240 760 b 158 807 222 775 192 792 b 160 813 154 808 156 813 b 236 804 196 814 236 804 b 503 599 350 775 463 706 b 278 183 564 436 432 264 z "},"":{"ha":572,"x_min":0,"x_max":0,"o":"m 135 1061 b 188 1093 153 1069 169 1085 b 186 1089 204 1100 203 1099 b 142 1049 169 1079 154 1065 b 222 1000 107 1000 189 972 b 296 990 250 1024 261 1006 b 429 1013 340 971 396 974 b 356 1079 472 1063 401 1110 b 376 1051 364 1072 376 1064 b 374 1050 376 1050 375 1050 b 328 1082 361 1053 346 1064 b 254 1118 306 1099 282 1113 b 126 1068 208 1128 160 1097 b 131 1061 114 1057 129 1060 z m 532 890 b 393 901 531 965 397 978 b 389 756 390 853 389 804 b 376 883 386 799 382 842 b 364 929 375 896 371 929 b 361 789 347 929 357 832 b 360 494 371 692 374 590 b 174 914 293 631 206 817 b 36 943 154 971 68 978 b 18 906 26 935 19 922 b 17 72 4 629 24 349 b 86 4 15 31 50 7 b 164 60 122 1 160 19 b 175 428 165 71 176 264 b 103 574 175 436 164 504 b 94 582 100 576 97 579 b 99 589 92 585 96 590 b 107 585 101 588 104 586 b 171 519 136 569 161 539 b 381 39 175 511 321 172 b 440 1 392 15 415 1 b 544 57 497 1 540 17 b 535 892 575 331 540 617 z m 389 433 b 379 454 386 440 382 447 b 392 540 385 482 389 511 b 392 494 392 525 392 510 b 392 428 392 485 392 458 b 386 432 392 426 393 419 z "},"":{"ha":597,"x_min":0,"x_max":0,"o":"m 579 499 b 290 964 565 664 511 936 b 208 879 222 972 193 921 b 169 844 194 868 181 857 b 143 811 160 833 151 822 b 186 875 157 833 171 856 b 190 893 190 879 194 890 b 163 875 182 897 165 878 b 26 519 89 781 42 649 b 11 361 17 463 13 408 b 372 4 6 168 117 -62 b 575 499 582 58 589 342 z m 307 126 b 183 407 174 82 178 349 b 215 592 188 457 197 525 b 225 199 185 461 188 315 b 251 203 229 185 256 188 b 303 751 197 369 214 599 b 300 769 306 757 303 763 b 257 839 288 794 272 817 b 264 844 250 849 260 846 b 329 778 289 833 329 778 b 354 726 339 761 347 743 b 408 493 388 654 400 571 b 308 128 418 403 428 168 z m 214 1074 b 218 1069 215 1072 217 1071 b 186 1068 210 1072 190 1075 b 282 1025 181 1057 225 1068 b 360 1022 293 1014 358 974 b 244 1165 361 1071 299 1147 b 211 1072 192 1183 160 1092 z "},"":{"ha":597,"x_min":0,"x_max":0,"o":"m 579 499 b 290 964 565 664 511 936 b 208 879 222 972 193 921 b 169 844 194 868 181 857 b 143 811 160 833 151 822 b 186 875 157 833 171 856 b 190 893 190 879 194 890 b 163 875 182 897 165 878 b 26 519 89 781 42 649 b 11 361 17 463 13 408 b 372 4 6 168 117 -62 b 575 499 582 58 589 342 z m 307 126 b 183 407 174 82 178 349 b 215 592 188 457 197 525 b 225 199 185 461 188 315 b 251 203 229 185 256 188 b 303 751 197 369 214 599 b 300 769 306 757 303 763 b 257 839 288 794 272 817 b 264 844 250 849 260 846 b 329 778 289 833 329 778 b 354 726 339 761 347 743 b 408 493 388 654 400 571 b 308 128 418 403 428 168 z m 281 999 b 432 1103 329 993 410 1050 b 342 1143 454 1154 365 1193 b 338 1139 340 1142 339 1140 b 338 1171 340 1147 344 1167 b 288 1081 328 1178 335 1133 b 279 1001 275 1069 231 1007 z "},"":{"ha":597,"x_min":0,"x_max":0,"o":"m 579 499 b 290 964 565 664 511 936 b 208 879 222 972 193 921 b 169 844 194 868 181 857 b 143 811 160 833 151 822 b 186 875 157 833 171 856 b 190 893 190 879 194 890 b 163 875 182 897 165 878 b 26 519 89 781 42 649 b 11 361 17 463 13 408 b 372 4 6 168 117 -62 b 575 499 582 58 589 342 z m 307 126 b 183 407 174 82 178 349 b 215 592 188 457 197 525 b 225 199 185 461 188 315 b 251 203 229 185 256 188 b 303 751 197 369 214 599 b 300 769 306 757 303 763 b 257 839 288 794 272 817 b 264 844 250 849 260 846 b 329 778 289 833 329 778 b 354 726 339 761 347 743 b 408 493 388 654 400 571 b 308 128 418 403 428 168 z m 169 1049 b 210 1075 183 1056 199 1064 b 193 1054 204 1068 199 1061 b 178 1038 189 1050 174 1033 b 197 992 158 1017 176 992 b 260 1019 225 992 244 1004 b 313 1096 293 1053 307 1079 b 322 1090 315 1103 319 1114 b 314 1044 326 1063 311 1051 b 375 997 317 1039 339 997 b 419 1047 446 997 451 1019 b 335 1153 385 1078 357 1113 b 290 1164 328 1167 306 1171 b 283 1165 289 1167 285 1168 b 226 1097 269 1139 246 1118 b 163 1050 215 1085 174 1056 b 172 1049 161 1050 157 1039 z "},"":{"ha":597,"x_min":0,"x_max":0,"o":"m 579 499 b 290 965 565 664 511 938 b 208 881 222 974 193 922 b 169 846 194 869 181 858 b 143 813 160 835 151 824 b 186 876 157 835 171 857 b 190 894 190 881 194 892 b 163 876 182 899 165 879 b 26 521 89 782 42 650 b 11 363 17 464 13 410 b 372 6 6 169 117 -61 b 575 500 582 60 589 343 z m 307 128 b 183 408 174 83 178 350 b 215 593 188 458 197 526 b 225 200 185 463 188 317 b 251 204 229 186 256 189 b 303 753 197 371 214 600 b 300 771 306 758 303 764 b 257 840 288 796 272 818 b 264 846 250 850 260 847 b 329 779 289 835 329 779 b 354 728 339 763 347 744 b 408 494 388 656 400 572 b 308 129 418 404 428 169 z m 144 1097 b 197 1129 163 1106 179 1121 b 196 1125 214 1136 213 1135 b 151 1085 179 1115 164 1101 b 232 1036 117 1036 199 1008 b 306 1026 260 1060 271 1042 b 439 1049 350 1007 406 1010 b 365 1115 482 1099 411 1146 b 386 1088 374 1108 386 1100 b 383 1086 386 1086 385 1086 b 338 1118 371 1089 356 1100 b 264 1154 315 1135 292 1149 b 136 1104 218 1164 169 1133 b 140 1097 124 1093 139 1096 z "},"":{"ha":597,"x_min":0,"x_max":0,"o":"m 579 499 b 290 964 565 664 511 936 b 208 879 222 972 193 921 b 169 844 194 868 181 857 b 143 811 160 833 151 822 b 186 875 157 833 171 856 b 190 893 190 879 194 890 b 163 875 182 897 165 878 b 26 519 89 781 42 649 b 11 361 17 463 13 408 b 372 4 6 168 117 -62 b 575 499 582 58 589 342 z m 307 126 b 183 407 174 82 178 349 b 215 592 188 457 197 525 b 225 199 185 461 188 315 b 251 203 229 185 256 188 b 303 751 197 369 214 599 b 300 769 306 757 303 763 b 257 839 288 794 272 817 b 264 844 250 849 260 846 b 329 778 289 833 329 778 b 354 726 339 761 347 743 b 408 493 388 654 400 571 b 308 128 418 403 428 168 z m 183 1032 b 235 1032 196 1025 222 1025 b 249 1118 286 1060 256 1110 b 190 1139 235 1136 211 1140 b 146 1099 171 1138 154 1119 b 151 1053 142 1088 139 1064 b 186 1031 158 1046 169 1039 z m 372 1031 b 424 1031 385 1024 411 1024 b 438 1117 475 1058 444 1108 b 379 1138 424 1135 400 1139 b 335 1097 360 1136 343 1118 b 340 1051 331 1086 328 1063 b 374 1029 347 1044 358 1038 z "},"":{"ha":503,"x_min":0,"x_max":0,"o":"m 403 643 b 269 528 367 622 301 557 b 231 485 257 514 244 499 b 224 489 226 481 221 483 b 233 550 232 503 240 543 b 124 640 199 583 163 614 b 38 525 58 686 -31 576 b 161 411 82 492 122 453 b 26 236 157 406 50 272 b 131 171 -24 160 82 100 b 243 314 147 196 239 310 b 356 157 283 263 321 210 b 463 247 399 92 506 182 b 340 422 425 306 385 365 b 450 521 365 444 422 504 b 403 638 522 567 486 686 z "},"":{"ha":597,"x_min":0,"x_max":0,"o":"m 579 499 b 528 747 574 571 560 664 b 564 868 540 788 553 828 b 454 906 582 935 472 969 b 446 881 451 897 449 889 b 289 963 407 924 356 954 b 207 878 221 971 192 919 b 168 843 193 867 179 856 b 142 810 158 832 150 821 b 185 874 156 832 169 854 b 189 892 189 878 193 889 b 161 874 181 896 164 876 b 25 518 88 779 40 647 b 10 360 15 461 11 407 b 68 119 7 278 26 189 b 40 85 58 108 50 96 b 136 24 -7 31 92 -26 b 144 36 139 28 142 32 b 372 4 201 -4 276 -21 b 575 499 582 58 589 342 z m 301 768 b 258 838 289 793 274 815 b 265 843 251 847 261 844 b 331 776 290 832 331 776 b 356 725 340 760 349 742 b 376 669 364 707 371 689 b 225 343 335 557 285 447 b 306 747 214 482 240 635 b 303 765 308 753 306 758 z m 185 404 b 217 589 189 454 199 522 b 203 306 194 497 190 397 b 186 279 197 297 192 288 b 183 406 181 332 182 383 z m 308 126 b 231 144 274 115 249 124 b 411 457 300 242 360 347 b 308 125 418 351 414 161 z "},"":{"ha":693,"x_min":0,"x_max":0,"o":"m 617 908 b 465 885 593 994 440 975 b 525 360 511 717 551 535 b 436 168 515 296 486 215 b 497 657 533 285 510 515 b 483 710 497 664 492 711 b 468 618 461 707 467 638 b 326 132 483 451 503 182 b 286 142 314 133 300 136 b 213 804 94 225 167 600 b 142 796 193 799 169 794 b 142 800 139 796 139 799 b 217 835 175 811 199 822 b 253 885 233 847 250 872 b 217 960 263 918 254 950 b 124 943 189 967 153 961 b 58 835 83 918 63 851 b 289 -1 0 565 -81 56 b 611 908 783 -78 685 636 z m 239 1072 b 243 1068 240 1071 242 1069 b 211 1067 235 1071 215 1074 b 307 1024 206 1056 250 1067 b 385 1021 318 1013 383 972 b 269 1164 386 1069 324 1146 b 236 1071 217 1182 185 1090 z "},"":{"ha":693,"x_min":0,"x_max":0,"o":"m 617 908 b 465 885 593 994 440 975 b 525 360 511 717 551 535 b 436 168 515 296 486 215 b 497 657 533 285 510 515 b 483 710 497 664 492 711 b 468 618 461 707 467 638 b 326 132 483 451 503 182 b 286 142 314 133 300 136 b 213 804 94 225 167 600 b 142 796 193 799 169 794 b 142 800 139 796 139 799 b 217 835 175 811 199 822 b 253 885 233 847 250 872 b 217 960 263 918 254 950 b 124 943 189 967 153 961 b 58 835 83 918 63 851 b 289 -1 0 565 -81 56 b 611 908 783 -78 685 636 z m 319 997 b 471 1101 368 992 449 1049 b 381 1142 493 1153 404 1192 b 376 1138 379 1140 378 1139 b 376 1169 379 1146 383 1165 b 326 1079 367 1176 374 1132 b 318 1000 314 1068 269 1006 z "},"":{"ha":693,"x_min":0,"x_max":0,"o":"m 617 908 b 465 885 593 994 440 975 b 525 360 511 717 551 535 b 436 168 515 296 486 215 b 497 657 533 285 510 515 b 483 710 497 664 492 711 b 468 618 461 707 467 638 b 326 132 483 451 503 182 b 286 142 314 133 300 136 b 213 804 94 225 167 600 b 142 796 193 799 169 794 b 142 800 139 796 139 799 b 217 835 175 811 199 822 b 253 885 233 847 250 872 b 217 960 263 918 254 950 b 124 943 189 967 153 961 b 58 835 83 918 63 851 b 289 -1 0 565 -81 56 b 611 908 783 -78 685 636 z m 213 1049 b 253 1075 226 1056 242 1064 b 236 1054 247 1068 242 1061 b 221 1038 232 1050 217 1033 b 240 992 201 1017 219 992 b 303 1019 268 992 288 1004 b 356 1096 336 1053 350 1079 b 365 1090 358 1103 363 1114 b 357 1044 369 1063 354 1051 b 418 997 360 1039 382 997 b 463 1047 489 997 494 1019 b 378 1153 428 1078 400 1113 b 333 1164 371 1167 349 1171 b 326 1165 332 1167 328 1168 b 269 1097 313 1139 289 1118 b 206 1050 258 1085 217 1056 b 215 1049 204 1050 200 1039 z "},"":{"ha":693,"x_min":0,"x_max":0,"o":"m 617 908 b 465 885 593 994 440 975 b 525 360 511 717 551 535 b 436 168 515 296 486 215 b 497 657 533 285 510 515 b 483 710 497 664 492 711 b 468 618 461 707 467 638 b 326 132 483 451 503 182 b 286 142 314 133 300 136 b 213 804 94 225 167 600 b 142 796 193 799 169 794 b 142 800 139 796 139 799 b 217 835 175 811 199 822 b 253 885 233 847 250 872 b 217 960 263 918 254 950 b 124 943 189 967 153 961 b 58 835 83 918 63 851 b 289 -1 0 565 -81 56 b 611 908 783 -78 685 636 z m 228 1031 b 279 1031 240 1024 267 1024 b 293 1117 331 1058 300 1108 b 235 1138 279 1135 256 1139 b 190 1097 215 1136 199 1118 b 196 1051 186 1086 183 1063 b 231 1029 203 1044 214 1038 z m 417 1029 b 468 1029 429 1022 456 1022 b 482 1115 519 1057 489 1107 b 424 1136 468 1133 444 1138 b 379 1096 404 1135 388 1117 b 385 1050 375 1085 372 1061 b 418 1028 392 1043 403 1036 z "},"":{"ha":713,"x_min":0,"x_max":0,"o":"m 339 1006 b 490 1110 388 1000 468 1057 b 400 1150 513 1161 424 1200 b 396 1146 399 1149 397 1147 b 396 1178 399 1154 403 1174 b 346 1088 386 1185 393 1140 b 338 1008 333 1076 289 1014 z m 560 933 b 401 731 499 872 446 804 b 404 744 396 721 397 731 b 432 792 413 761 422 776 b 526 917 460 836 497 874 b 519 921 529 921 522 924 b 367 711 460 854 404 790 b 383 588 367 711 397 656 b 378 588 383 585 379 585 b 347 661 368 613 360 638 b 347 661 347 661 347 661 b 151 933 288 756 221 846 b 29 858 99 999 -31 935 b 74 801 44 840 60 821 b 36 842 61 815 49 829 b 29 838 33 844 26 842 b 188 596 85 758 142 682 b 256 442 214 546 236 494 b 203 35 254 438 185 169 b 261 -1 206 13 233 -1 b 344 49 303 -1 339 4 b 678 843 376 331 483 650 b 557 928 743 908 615 986 z m 271 476 b 214 593 254 517 235 556 b 276 488 236 558 257 524 b 271 475 274 483 272 479 z "},"":{"ha":639,"x_min":0,"x_max":0,"o":"m 621 501 b 228 779 594 700 404 768 b 226 800 228 786 228 793 b 204 879 224 824 219 879 b 197 833 197 879 196 846 b 200 779 199 804 200 779 b 188 779 196 779 192 779 b 183 881 186 814 185 847 b 29 894 179 971 25 985 b 14 74 42 622 43 346 b 168 60 4 -17 158 -31 b 175 135 171 85 172 110 b 97 175 153 139 126 150 b 101 182 94 178 97 182 b 186 176 133 178 164 176 b 619 500 393 179 654 233 z m 190 642 b 211 642 197 642 204 642 b 199 315 217 532 214 421 b 186 315 194 315 190 315 b 190 640 190 424 192 532 z m 225 315 b 238 638 240 419 243 529 b 458 515 329 632 429 608 b 225 314 511 350 351 319 z "},"":{"ha":703,"x_min":0,"x_max":0,"o":"m 618 274 b 619 413 706 283 715 413 b 574 413 604 413 589 413 b 436 819 529 551 469 718 b 381 760 424 808 407 793 b 375 764 378 757 374 760 b 424 857 396 815 415 846 b 433 899 439 875 436 890 b 285 913 415 967 314 978 b 90 381 208 740 142 563 b 69 378 83 379 76 379 b 54 244 -11 365 -3 271 b 17 74 40 188 28 131 b 171 60 0 -15 154 -29 b 215 253 183 125 199 189 b 457 269 296 261 376 267 b 526 56 479 197 503 126 b 679 81 554 -28 708 -8 b 617 276 658 146 638 211 z m 258 400 b 346 653 285 485 314 569 b 418 410 369 571 393 490 b 260 400 365 407 313 404 z m 256 1075 b 260 1071 257 1074 258 1072 b 228 1069 251 1074 232 1076 b 324 1026 222 1058 267 1069 b 401 1024 335 1015 400 975 b 286 1167 403 1072 340 1149 b 253 1074 233 1185 201 1093 z "},"":{"ha":703,"x_min":0,"x_max":0,"o":"m 618 274 b 619 413 706 283 715 413 b 574 413 604 413 589 413 b 436 819 529 551 469 718 b 381 760 424 808 407 793 b 375 764 378 757 374 760 b 424 857 396 815 415 846 b 433 899 439 875 436 890 b 285 913 415 967 314 978 b 90 381 208 740 142 563 b 69 378 83 379 76 379 b 54 244 -11 365 -3 271 b 17 74 40 188 28 131 b 171 60 0 -15 154 -29 b 215 253 183 125 199 189 b 457 269 296 261 376 267 b 526 56 479 197 503 126 b 679 81 554 -28 708 -8 b 617 276 658 146 638 211 z m 258 400 b 346 653 285 485 314 569 b 418 410 369 571 393 490 b 260 400 365 407 313 404 z m 374 1000 b 525 1104 422 994 503 1051 b 435 1144 547 1156 458 1194 b 431 1140 433 1143 432 1142 b 431 1172 433 1149 438 1168 b 381 1082 421 1179 428 1135 b 372 1003 368 1071 324 1008 z "},"":{"ha":703,"x_min":0,"x_max":0,"o":"m 618 274 b 619 413 706 283 715 413 b 574 413 604 413 589 413 b 436 819 529 551 469 718 b 381 760 424 808 407 793 b 375 764 378 757 374 760 b 424 857 396 815 415 846 b 433 899 439 875 436 890 b 285 913 415 967 314 978 b 90 381 208 740 142 563 b 69 378 83 379 76 379 b 54 244 -11 365 -3 271 b 17 74 40 188 28 131 b 171 60 0 -15 154 -29 b 215 253 183 125 199 189 b 457 269 296 261 376 267 b 526 56 479 197 503 126 b 679 81 554 -28 708 -8 b 617 276 658 146 638 211 z m 258 400 b 346 653 285 485 314 569 b 418 410 369 571 393 490 b 260 400 365 407 313 404 z m 225 1051 b 265 1078 239 1058 254 1067 b 249 1057 260 1071 254 1064 b 233 1040 244 1053 229 1036 b 253 994 214 1019 232 994 b 315 1022 281 994 300 1007 b 368 1099 349 1056 363 1082 b 378 1093 371 1106 375 1117 b 369 1047 382 1065 367 1054 b 431 1000 372 1042 394 1000 b 475 1050 501 1000 507 1022 b 390 1156 440 1081 413 1115 b 346 1167 383 1169 361 1174 b 339 1168 344 1169 340 1171 b 282 1100 325 1142 301 1121 b 218 1053 271 1088 229 1058 b 228 1051 217 1053 213 1042 z "},"":{"ha":703,"x_min":0,"x_max":0,"o":"m 618 274 b 619 413 706 283 715 413 b 574 413 604 413 589 413 b 436 819 529 551 469 718 b 381 760 424 808 407 793 b 375 764 378 757 374 760 b 424 857 396 815 415 846 b 433 899 439 875 436 890 b 285 913 415 967 314 978 b 90 381 208 740 142 563 b 69 378 83 379 76 379 b 54 244 -11 365 -3 271 b 17 74 40 188 28 131 b 171 60 0 -15 154 -29 b 215 253 183 125 199 189 b 457 269 296 261 376 267 b 526 56 479 197 503 126 b 679 81 554 -28 708 -8 b 617 276 658 146 638 211 z m 258 400 b 346 653 285 485 314 569 b 418 410 369 571 393 490 b 260 400 365 407 313 404 z m 200 1097 b 253 1129 218 1106 235 1121 b 251 1125 269 1136 268 1135 b 207 1085 235 1115 219 1101 b 288 1036 172 1036 254 1008 b 361 1026 315 1060 326 1042 b 494 1049 406 1007 461 1010 b 421 1115 538 1099 467 1146 b 442 1088 429 1108 442 1100 b 439 1086 442 1086 440 1086 b 393 1118 426 1089 411 1100 b 319 1154 371 1135 347 1149 b 192 1104 274 1164 225 1133 b 196 1097 179 1093 194 1096 z "},"":{"ha":703,"x_min":0,"x_max":0,"o":"m 618 274 b 619 413 706 283 715 413 b 574 413 604 413 589 413 b 436 819 529 551 469 718 b 381 760 424 808 407 793 b 375 764 378 757 374 760 b 424 857 396 815 415 846 b 433 899 439 875 436 890 b 285 913 415 967 314 978 b 90 381 208 740 142 563 b 69 378 83 379 76 379 b 54 244 -11 365 -3 271 b 17 74 40 188 28 131 b 171 60 0 -15 154 -29 b 215 253 183 125 199 189 b 457 269 296 261 376 267 b 526 56 479 197 503 126 b 679 81 554 -28 708 -8 b 617 276 658 146 638 211 z m 258 400 b 346 653 285 485 314 569 b 418 410 369 571 393 490 b 260 400 365 407 313 404 z m 251 1035 b 303 1035 264 1028 290 1028 b 317 1121 354 1063 324 1113 b 258 1142 303 1139 279 1143 b 214 1101 239 1140 222 1122 b 219 1056 210 1090 207 1067 b 253 1033 226 1049 238 1042 z m 439 1033 b 490 1033 451 1026 478 1026 b 504 1119 542 1061 511 1111 b 446 1140 490 1138 467 1142 b 401 1100 426 1139 410 1121 b 407 1054 397 1089 394 1065 b 440 1032 414 1047 425 1040 z "},"":{"ha":703,"x_min":0,"x_max":0,"o":"m 322 982 b 322 985 325 982 325 985 b 232 1063 276 993 246 1024 b 367 992 258 1015 313 983 b 492 1110 425 1001 478 1053 b 483 1201 500 1140 501 1174 b 386 1251 461 1235 425 1250 b 293 1251 357 1264 325 1265 b 225 1181 261 1238 238 1211 b 208 1089 210 1156 204 1125 b 324 983 214 1033 264 978 z m 324 1169 b 392 1160 343 1186 382 1174 b 364 1075 411 1132 386 1081 b 304 1111 339 1075 304 1085 b 322 1171 304 1118 297 1150 z m 618 276 b 619 415 706 286 715 415 b 574 415 604 415 589 415 b 436 822 529 554 469 721 b 381 763 424 811 407 796 b 375 767 378 760 374 763 b 424 860 396 818 415 849 b 433 901 439 878 436 893 b 285 915 415 969 314 981 b 90 383 208 743 142 565 b 69 381 83 382 76 382 b 54 247 -11 368 -3 274 b 17 76 40 190 28 133 b 171 63 0 -12 154 -26 b 215 256 183 128 199 192 b 457 272 296 264 376 269 b 526 58 479 200 503 129 b 679 83 554 -25 708 -6 b 617 279 658 149 638 214 z m 258 403 b 346 656 285 488 314 572 b 418 413 369 574 393 493 b 260 403 365 410 313 407 z "},"":{"ha":1232,"x_min":0,"x_max":0,"o":"m 1215 99 b 1193 247 1203 147 1194 197 b 1039 274 1190 333 1050 350 b 1022 288 1039 274 1029 285 b 1013 271 1010 292 1011 278 b 1025 150 1019 231 1024 190 b 817 142 956 147 886 144 b 833 358 825 214 831 286 b 1050 378 906 363 978 369 b 1021 515 1150 389 1115 526 b 838 499 960 508 899 503 b 826 810 838 603 833 707 b 993 818 882 813 938 815 b 1047 882 1003 838 1019 860 b 1054 881 1051 886 1057 885 b 1026 817 1043 857 1032 840 b 1010 686 1017 774 1011 729 b 1164 672 1008 596 1163 582 b 1185 813 1165 719 1169 767 b 1197 846 1189 824 1193 835 b 1200 851 1201 854 1210 867 b 1143 961 1228 896 1203 963 b 796 946 1026 958 911 953 b 668 878 751 978 663 950 b 682 529 676 763 682 646 b 665 840 678 633 671 738 b 649 885 665 851 661 900 b 642 794 639 874 640 821 b 660 408 649 667 657 538 b 631 408 650 408 640 408 b 564 815 610 547 579 714 b 499 756 550 804 531 789 b 494 760 496 753 492 756 b 561 853 525 811 550 842 b 578 894 579 871 579 886 b 432 908 572 963 472 974 b 143 376 325 736 228 558 b 122 374 136 375 129 375 b 83 240 39 361 31 267 b 17 69 60 183 38 126 b 168 56 -15 -19 136 -33 b 208 156 181 89 194 122 b 167 24 193 113 179 68 b 186 22 164 13 183 11 b 265 249 208 100 233 175 b 490 263 340 256 415 260 b 521 49 500 190 510 119 b 663 24 531 -15 625 -18 b 724 -4 676 7 700 -3 b 743 -6 729 -6 736 -6 b 1151 11 879 0 1015 6 b 1213 92 1189 13 1222 56 z m 335 392 b 343 417 335 392 342 410 b 331 422 346 429 339 432 b 308 390 324 414 308 390 b 442 643 350 475 394 560 b 469 400 450 561 460 481 b 333 393 425 399 379 396 z m 657 271 b 654 204 657 249 656 226 b 646 271 651 226 649 249 b 658 274 650 271 654 272 z "},"":{"ha":744,"x_min":0,"x_max":0,"o":"m 460 751 b 525 617 489 713 511 663 b 674 603 543 558 656 528 b 729 885 696 696 714 790 b 575 901 743 972 593 986 b 618 792 590 885 614 850 b 611 790 618 788 614 786 b 564 860 594 818 576 843 b 458 938 535 893 500 921 b 33 564 242 1022 76 732 b 218 15 -15 371 15 108 b 269 -1 235 8 251 3 b 249 -56 263 -19 256 -37 b 294 -119 238 -86 263 -118 b 347 -140 313 -119 342 -119 b 332 -169 351 -154 343 -164 b 247 -161 308 -182 269 -171 b 213 -247 188 -136 150 -222 b 428 -218 278 -274 378 -279 b 443 -93 454 -185 463 -132 b 369 -35 428 -64 400 -46 b 378 -10 372 -26 375 -18 b 379 -6 379 -8 379 -7 b 718 238 524 6 668 103 b 572 288 750 325 603 371 b 218 207 521 149 317 74 b 210 603 140 311 163 493 b 463 757 251 701 361 896 z "},"":{"ha":593,"x_min":0,"x_max":0,"o":"m 578 99 b 556 247 565 147 557 197 b 401 261 553 338 399 351 b 411 151 403 224 406 188 b 182 143 335 149 258 146 b 199 360 190 215 196 288 b 415 379 271 364 343 371 b 386 517 515 390 481 528 b 203 500 325 510 264 504 b 192 811 203 604 199 708 b 358 819 247 814 303 817 b 413 883 368 839 385 861 b 419 882 417 888 422 886 b 392 818 408 858 397 842 b 375 688 382 775 376 731 b 529 674 374 597 528 583 b 550 814 531 721 535 768 b 563 847 554 825 558 836 b 565 853 567 856 575 868 b 508 963 593 897 568 964 b 161 947 392 960 276 954 b 33 879 117 979 28 951 b 17 76 54 614 57 340 b 89 1 10 29 49 3 b 108 0 94 0 101 0 b 517 17 244 6 381 11 b 578 97 554 18 588 61 z m 206 1071 b 210 1067 207 1069 208 1068 b 178 1065 201 1069 182 1072 b 274 1022 172 1054 217 1065 b 351 1019 285 1011 350 971 b 236 1163 353 1068 290 1144 b 203 1069 183 1181 151 1089 z "},"":{"ha":593,"x_min":0,"x_max":0,"o":"m 578 99 b 556 247 565 147 557 197 b 401 261 553 338 399 351 b 411 151 403 224 406 188 b 182 143 335 149 258 146 b 199 360 190 215 196 288 b 415 379 271 364 343 371 b 386 517 515 390 481 528 b 203 500 325 510 264 504 b 192 811 203 604 199 708 b 358 819 247 814 303 817 b 413 883 368 839 385 861 b 419 882 417 888 422 886 b 392 818 408 858 397 842 b 375 688 382 775 376 731 b 529 674 374 597 528 583 b 550 814 531 721 535 768 b 563 847 554 825 558 836 b 565 853 567 856 575 868 b 508 963 593 897 568 964 b 161 947 392 960 276 954 b 33 879 117 979 28 951 b 17 76 54 614 57 340 b 89 1 10 29 49 3 b 108 0 94 0 101 0 b 517 17 244 6 381 11 b 578 97 554 18 588 61 z m 276 996 b 428 1100 325 990 406 1047 b 338 1140 450 1151 361 1190 b 333 1136 336 1139 335 1138 b 333 1168 336 1144 340 1164 b 283 1078 324 1175 331 1131 b 275 999 271 1067 226 1004 z "},"":{"ha":593,"x_min":0,"x_max":0,"o":"m 578 99 b 556 247 565 147 557 197 b 401 261 553 338 399 351 b 411 151 403 224 406 188 b 182 143 335 149 258 146 b 199 360 190 215 196 288 b 415 379 271 364 343 371 b 386 517 515 390 481 528 b 203 500 325 510 264 504 b 192 811 203 604 199 708 b 358 819 247 814 303 817 b 413 883 368 839 385 861 b 419 882 417 888 422 886 b 392 818 408 858 397 842 b 375 688 382 775 376 731 b 529 674 374 597 528 583 b 550 814 531 721 535 768 b 563 847 554 825 558 836 b 565 853 567 856 575 868 b 508 963 593 897 568 964 b 161 947 392 960 276 954 b 33 879 117 979 28 951 b 17 76 54 614 57 340 b 89 1 10 29 49 3 b 108 0 94 0 101 0 b 517 17 244 6 381 11 b 578 97 554 18 588 61 z m 171 1047 b 211 1074 185 1054 200 1063 b 194 1053 206 1067 200 1060 b 179 1036 190 1049 175 1032 b 199 990 160 1015 178 990 b 261 1018 226 990 246 1003 b 314 1094 294 1051 308 1078 b 324 1089 317 1101 321 1113 b 315 1043 328 1061 313 1050 b 376 996 318 1038 340 996 b 421 1046 447 996 453 1018 b 336 1151 386 1076 358 1111 b 292 1163 329 1165 307 1169 b 285 1164 290 1165 286 1167 b 228 1096 271 1138 247 1117 b 164 1049 217 1083 175 1054 b 174 1047 163 1049 158 1038 z "},"":{"ha":593,"x_min":0,"x_max":0,"o":"m 578 99 b 556 247 565 147 557 197 b 401 261 553 338 399 351 b 411 151 403 224 406 188 b 182 143 335 149 258 146 b 199 360 190 215 196 288 b 415 379 271 364 343 371 b 386 517 515 390 481 528 b 203 500 325 510 264 504 b 192 811 203 604 199 708 b 358 819 247 814 303 817 b 413 883 368 839 385 861 b 419 882 417 888 422 886 b 392 818 408 858 397 842 b 375 688 382 775 376 731 b 529 674 374 597 528 583 b 550 814 531 721 535 768 b 563 847 554 825 558 836 b 565 853 567 856 575 868 b 508 963 593 897 568 964 b 161 947 392 960 276 954 b 33 879 117 979 28 951 b 17 76 54 614 57 340 b 89 1 10 29 49 3 b 108 0 94 0 101 0 b 517 17 244 6 381 11 b 578 97 554 18 588 61 z m 185 1029 b 236 1029 197 1022 224 1022 b 250 1115 288 1057 257 1107 b 192 1136 236 1133 213 1138 b 147 1096 172 1135 156 1117 b 153 1050 143 1085 140 1061 b 186 1028 160 1043 171 1036 z m 372 1028 b 424 1028 385 1021 411 1021 b 438 1114 475 1056 444 1106 b 379 1135 424 1132 400 1136 b 335 1094 360 1133 343 1115 b 340 1049 331 1083 328 1060 b 374 1026 347 1042 358 1035 z "},"":{"ha":193,"x_min":0,"x_max":0,"o":"m 160 897 b 22 904 158 974 26 982 b 17 775 19 861 18 818 b 94 760 38 775 64 772 b 94 754 97 758 97 754 b 17 742 65 751 38 746 b 19 67 14 517 25 292 b 168 58 17 -17 158 -24 b 158 897 193 288 160 857 z m 117 1022 b 1 1165 118 1071 56 1147 b -32 1072 -51 1183 -83 1092 b -28 1068 -31 1071 -29 1069 b -60 1067 -36 1071 -56 1074 b 36 1024 -65 1056 -21 1067 b 114 1021 47 1013 113 972 z "},"":{"ha":188,"x_min":0,"x_max":0,"o":"m 19 904 b 14 775 17 861 15 818 b 92 760 35 775 61 772 b 92 754 94 758 94 754 b 14 742 63 751 35 746 b 17 67 11 517 22 292 b 165 58 14 -17 156 -24 b 156 897 190 288 157 857 b 18 904 154 974 22 982 z m 133 1140 b 129 1136 132 1139 131 1138 b 129 1168 132 1144 136 1164 b 79 1078 119 1175 126 1131 b 71 999 67 1067 22 1004 b 222 1103 119 993 200 1050 b 132 1143 244 1154 156 1193 z "},"":{"ha":194,"x_min":0,"x_max":0,"o":"m 22 906 b 17 776 19 863 18 819 b 94 761 38 776 64 774 b 94 756 97 760 97 756 b 17 743 65 753 38 747 b 19 68 14 518 25 293 b 168 60 17 -15 158 -22 b 158 899 193 289 160 858 b 21 906 157 975 25 983 z m 215 1050 b 131 1156 181 1081 153 1115 b 86 1167 124 1169 101 1174 b 79 1168 85 1169 81 1171 b 22 1100 65 1142 42 1121 b -42 1053 11 1088 -31 1058 b -32 1051 -43 1053 -47 1042 b 8 1078 -18 1058 -3 1067 b -8 1057 3 1071 -3 1064 b -24 1040 -12 1053 -28 1036 b -4 994 -43 1019 -25 994 b 58 1022 24 994 43 1007 b 111 1099 92 1056 106 1082 b 121 1093 114 1106 118 1117 b 113 1047 125 1065 110 1054 b 174 1000 115 1042 138 1000 b 218 1050 244 1000 250 1022 z "},"":{"ha":199,"x_min":0,"x_max":0,"o":"m 24 904 b 18 775 21 861 19 818 b 96 760 39 775 65 772 b 96 754 99 758 99 754 b 18 742 67 751 39 746 b 21 67 15 517 26 292 b 169 58 18 -17 160 -24 b 160 897 194 288 161 857 b 22 904 158 974 26 982 z m 50 1118 b -8 1139 36 1136 13 1140 b -53 1099 -28 1138 -44 1119 b -47 1053 -57 1088 -60 1064 b -14 1031 -40 1046 -29 1039 b 38 1031 -1 1024 25 1024 b 51 1117 89 1058 58 1108 z m 238 1117 b 179 1138 224 1135 200 1139 b 135 1097 160 1136 143 1118 b 140 1051 131 1086 128 1063 b 174 1029 147 1044 158 1038 b 225 1029 186 1022 213 1022 b 239 1115 276 1057 246 1107 z "},"":{"ha":688,"x_min":0,"x_max":0,"o":"m 667 581 b 213 953 628 788 414 922 b 140 963 199 956 150 963 b 67 882 99 960 58 932 b 100 535 86 768 97 651 b 54 522 85 531 69 526 b 76 403 -14 501 11 385 b 101 411 85 406 93 408 b 67 76 99 299 88 186 b 97 13 61 46 75 24 b 158 1 121 1 150 1 b 667 581 419 19 719 303 z m 238 165 b 257 431 250 253 256 342 b 335 419 283 431 310 428 b 375 533 397 399 442 506 b 401 525 383 531 392 528 b 407 536 407 524 414 532 b 292 557 371 558 331 560 b 254 556 279 556 267 556 b 239 765 251 626 247 696 b 157 808 221 776 190 793 b 158 814 153 810 154 814 b 235 806 194 815 235 806 b 501 600 349 776 461 707 b 236 165 568 424 406 235 z "},"":{"ha":572,"x_min":0,"x_max":0,"o":"m 135 1061 b 188 1093 153 1069 169 1085 b 186 1089 204 1100 203 1099 b 142 1049 169 1079 154 1065 b 222 1000 107 1000 189 972 b 296 990 250 1024 261 1006 b 429 1013 340 971 396 974 b 356 1079 472 1063 401 1110 b 376 1051 364 1072 376 1064 b 374 1050 376 1050 375 1050 b 328 1082 361 1053 346 1064 b 254 1118 306 1099 282 1113 b 126 1068 208 1128 160 1097 b 131 1061 114 1057 129 1060 z m 532 890 b 393 901 531 965 397 978 b 390 493 386 765 388 629 b 390 426 390 483 390 457 b 385 431 390 425 392 418 b 168 910 318 565 206 797 b 31 939 149 967 63 974 b 13 901 21 931 14 918 b 11 68 -1 625 18 344 b 81 0 10 26 44 3 b 158 56 117 -3 154 15 b 169 424 160 67 171 260 b 97 569 169 432 158 500 b 89 578 94 572 92 575 b 93 585 86 581 90 586 b 101 581 96 583 99 582 b 165 515 131 565 156 535 b 375 35 169 507 315 168 b 435 -3 386 11 410 -3 b 539 53 492 -3 535 13 b 529 888 569 326 535 613 z "},"":{"ha":597,"x_min":0,"x_max":0,"o":"m 579 499 b 290 965 565 664 511 938 b 208 881 222 974 193 922 b 169 846 194 869 181 858 b 69 678 96 765 69 678 b 14 363 31 572 17 454 b 375 4 8 169 119 -61 b 578 499 585 58 592 342 z m 310 126 b 186 407 176 82 181 349 b 294 756 194 504 222 669 b 304 769 294 756 306 768 b 261 839 292 794 276 817 b 268 844 254 849 264 846 b 333 778 293 833 333 778 b 358 726 343 761 351 743 b 413 493 392 654 404 571 b 313 128 422 403 432 168 z m 214 1074 b 218 1069 215 1072 217 1071 b 186 1068 210 1072 190 1075 b 282 1025 181 1057 225 1068 b 360 1022 293 1014 358 974 b 244 1165 361 1071 299 1147 b 211 1072 192 1183 160 1092 z "},"":{"ha":597,"x_min":0,"x_max":0,"o":"m 579 499 b 290 965 565 664 511 938 b 208 881 222 974 193 922 b 169 846 194 869 181 858 b 69 678 96 765 69 678 b 14 363 31 572 17 454 b 375 4 8 169 119 -61 b 578 499 585 58 592 342 z m 310 126 b 186 407 176 82 181 349 b 294 756 194 504 222 669 b 304 769 294 756 306 768 b 261 839 292 794 276 817 b 268 844 254 849 264 846 b 333 778 293 833 333 778 b 358 726 343 761 351 743 b 413 493 392 654 404 571 b 313 128 422 403 432 168 z m 281 999 b 432 1103 329 993 410 1050 b 342 1143 454 1154 365 1193 b 338 1139 340 1142 339 1140 b 338 1171 340 1147 344 1167 b 288 1081 328 1178 335 1133 b 279 1001 275 1069 231 1007 z "},"":{"ha":597,"x_min":0,"x_max":0,"o":"m 579 499 b 290 965 565 664 511 938 b 208 881 222 974 193 922 b 169 846 194 869 181 858 b 69 678 96 765 69 678 b 14 363 31 572 17 454 b 375 4 8 169 119 -61 b 578 499 585 58 592 342 z m 310 126 b 186 407 176 82 181 349 b 294 756 194 504 222 669 b 304 769 294 756 306 768 b 261 839 292 794 276 817 b 268 844 254 849 264 846 b 333 778 293 833 333 778 b 358 726 343 761 351 743 b 413 493 392 654 404 571 b 313 128 422 403 432 168 z m 171 1049 b 211 1075 185 1056 200 1064 b 194 1054 206 1068 200 1061 b 179 1038 190 1050 175 1033 b 199 992 160 1017 178 992 b 261 1019 226 992 246 1004 b 314 1096 294 1053 308 1079 b 324 1090 317 1103 321 1114 b 315 1044 328 1063 313 1051 b 376 997 318 1039 340 997 b 421 1047 447 997 453 1019 b 336 1153 386 1078 358 1113 b 292 1164 329 1167 307 1171 b 285 1165 290 1167 286 1168 b 228 1097 271 1139 247 1118 b 164 1050 217 1085 175 1056 b 174 1049 163 1050 158 1039 z "},"":{"ha":597,"x_min":0,"x_max":0,"o":"m 579 499 b 290 965 565 664 511 938 b 208 881 222 974 193 922 b 169 846 194 869 181 858 b 69 678 96 765 69 678 b 14 363 31 572 17 454 b 375 4 8 169 119 -61 b 578 499 585 58 592 342 z m 310 126 b 186 407 176 82 181 349 b 294 756 194 504 222 669 b 304 769 294 756 306 768 b 261 839 292 794 276 817 b 268 844 254 849 264 846 b 333 778 293 833 333 778 b 358 726 343 761 351 743 b 413 493 392 654 404 571 b 313 128 422 403 432 168 z m 146 1096 b 199 1128 164 1104 181 1119 b 197 1124 215 1135 214 1133 b 153 1083 181 1114 165 1100 b 233 1035 118 1035 200 1007 b 307 1025 261 1058 272 1040 b 440 1047 351 1006 407 1008 b 367 1114 483 1097 413 1144 b 388 1086 375 1107 388 1099 b 385 1085 388 1085 386 1085 b 339 1117 372 1088 357 1099 b 265 1153 317 1133 293 1147 b 138 1103 219 1163 171 1132 b 142 1096 125 1092 140 1094 z "},"":{"ha":597,"x_min":0,"x_max":0,"o":"m 579 499 b 290 965 565 664 511 938 b 208 881 222 974 193 922 b 169 846 194 869 181 858 b 69 678 96 765 69 678 b 14 363 31 572 17 454 b 375 4 8 169 119 -61 b 578 499 585 58 592 342 z m 310 126 b 186 407 176 82 181 349 b 294 756 194 504 222 669 b 304 769 294 756 306 768 b 261 839 292 794 276 817 b 268 844 254 849 264 846 b 333 778 293 833 333 778 b 358 726 343 761 351 743 b 413 493 392 654 404 571 b 313 128 422 403 432 168 z m 186 1032 b 238 1032 199 1025 225 1025 b 251 1118 289 1060 258 1110 b 193 1139 238 1136 214 1140 b 149 1099 174 1138 157 1119 b 154 1053 144 1088 142 1064 b 189 1031 161 1046 172 1039 z m 375 1031 b 426 1031 388 1024 414 1024 b 440 1117 478 1058 447 1108 b 382 1138 426 1135 403 1139 b 338 1097 363 1136 346 1118 b 343 1051 333 1086 331 1063 b 376 1029 350 1044 361 1038 z "},"":{"ha":688,"x_min":0,"x_max":0,"o":"m 588 511 b 86 467 425 476 251 447 b 64 344 8 475 -17 357 b 465 361 194 325 332 338 b 368 339 433 353 401 344 b 206 326 315 329 260 326 b 138 332 182 326 160 329 b 65 342 113 335 89 333 b 57 326 56 344 47 332 b 178 308 90 308 140 313 b 331 315 228 303 281 310 b 494 349 386 321 440 335 b 574 367 521 356 547 361 b 647 388 599 372 622 383 b 644 399 654 389 651 399 b 635 399 640 399 638 399 b 589 513 708 426 668 529 z m 326 268 b 274 213 300 267 271 240 b 264 199 275 196 269 186 b 263 228 260 207 260 221 b 254 231 264 232 257 235 b 250 185 247 221 246 200 b 319 118 254 171 261 147 b 392 119 338 110 374 110 b 435 169 422 135 433 158 b 413 239 435 208 422 226 b 331 268 393 264 360 269 z m 322 517 b 393 518 340 508 376 508 b 413 639 464 557 422 626 b 331 668 393 664 360 669 b 269 613 304 667 281 642 b 276 550 264 597 260 565 b 324 519 286 540 301 531 z "},"":{"ha":597,"x_min":0,"x_max":0,"o":"m 579 499 b 528 747 574 571 560 664 b 564 868 540 788 553 828 b 454 906 582 935 472 969 b 446 881 451 897 449 889 b 289 963 407 924 356 954 b 207 878 221 971 192 919 b 168 843 193 867 179 856 b 68 675 94 763 68 675 b 13 360 29 569 15 451 b 71 119 10 278 29 189 b 43 85 61 108 53 96 b 139 24 -4 31 94 -26 b 147 36 142 28 144 32 b 375 4 204 -4 279 -21 b 578 499 585 58 592 342 z m 186 407 b 294 756 194 504 222 669 b 304 769 294 756 306 768 b 261 839 292 794 276 817 b 268 844 254 849 264 846 b 333 778 293 833 333 778 b 358 726 343 761 351 743 b 379 671 367 708 374 690 b 189 279 329 535 267 401 b 186 406 183 332 185 383 z m 311 126 b 233 144 276 115 251 124 b 414 457 303 242 363 347 b 311 125 421 351 417 161 z "},"":{"ha":693,"x_min":0,"x_max":0,"o":"m 617 908 b 465 885 593 994 440 975 b 525 360 511 717 551 535 b 289 144 508 249 432 82 b 215 807 97 228 169 603 b 144 799 196 801 172 797 b 144 803 142 799 142 801 b 219 838 178 814 201 825 b 256 888 236 850 253 875 b 219 963 265 921 257 953 b 126 946 192 969 156 964 b 61 838 86 921 65 854 b 292 1 3 568 -78 58 b 614 911 786 -75 688 639 z m 282 1075 b 286 1071 283 1074 285 1072 b 254 1069 278 1074 258 1076 b 350 1026 249 1058 293 1069 b 428 1024 361 1015 426 975 b 313 1167 429 1072 367 1149 b 279 1074 260 1185 228 1093 z "},"":{"ha":693,"x_min":0,"x_max":0,"o":"m 617 908 b 465 885 593 994 440 975 b 525 360 511 717 551 535 b 289 144 508 249 432 82 b 215 807 97 228 169 603 b 144 799 196 801 172 797 b 144 803 142 799 142 801 b 219 838 178 814 201 825 b 256 888 236 850 253 875 b 219 963 265 921 257 953 b 126 946 192 969 156 964 b 61 838 86 921 65 854 b 292 1 3 568 -78 58 b 614 911 786 -75 688 639 z m 331 1000 b 482 1104 379 994 460 1051 b 392 1144 504 1156 415 1194 b 388 1140 390 1143 389 1142 b 388 1172 390 1149 394 1168 b 338 1082 378 1179 385 1135 b 329 1003 325 1071 281 1008 z "},"":{"ha":693,"x_min":0,"x_max":0,"o":"m 617 908 b 465 885 593 994 440 975 b 525 360 511 717 551 535 b 289 144 508 249 432 82 b 215 807 97 228 169 603 b 144 799 196 801 172 797 b 144 803 142 799 142 801 b 219 838 178 814 201 825 b 256 888 236 850 253 875 b 219 963 265 921 257 953 b 126 946 192 969 156 964 b 61 838 86 921 65 854 b 292 1 3 568 -78 58 b 614 911 786 -75 688 639 z m 246 1049 b 286 1075 260 1056 275 1064 b 269 1054 281 1068 275 1061 b 254 1038 265 1050 250 1033 b 274 992 235 1017 253 992 b 336 1019 301 992 321 1004 b 389 1096 369 1053 383 1079 b 399 1090 392 1103 396 1114 b 390 1044 403 1063 388 1051 b 451 997 393 1039 415 997 b 496 1047 522 997 528 1019 b 411 1153 461 1078 433 1113 b 367 1164 404 1167 382 1171 b 360 1165 365 1167 361 1168 b 303 1097 346 1139 322 1118 b 239 1050 292 1085 250 1056 b 249 1049 238 1050 233 1039 z "},"":{"ha":693,"x_min":0,"x_max":0,"o":"m 617 908 b 465 885 593 994 440 975 b 525 360 511 717 551 535 b 289 144 508 249 432 82 b 215 807 97 228 169 603 b 144 799 196 801 172 797 b 144 803 142 799 142 801 b 219 838 178 814 201 825 b 256 888 236 850 253 875 b 219 963 265 921 257 953 b 126 946 192 969 156 964 b 61 838 86 921 65 854 b 292 1 3 568 -78 58 b 614 911 786 -75 688 639 z m 231 1033 b 282 1033 243 1026 269 1026 b 296 1119 333 1061 303 1111 b 238 1140 282 1138 258 1142 b 193 1100 218 1139 201 1121 b 199 1054 189 1089 186 1065 b 233 1032 206 1047 217 1040 z m 419 1032 b 471 1032 432 1025 458 1025 b 485 1118 522 1060 492 1110 b 426 1139 471 1136 447 1140 b 382 1099 407 1138 390 1119 b 388 1053 378 1088 375 1064 b 421 1031 394 1046 406 1039 z "},"":{"ha":713,"x_min":0,"x_max":0,"o":"m 322 1006 b 474 1110 371 1000 451 1057 b 383 1150 496 1161 407 1200 b 379 1146 382 1149 381 1147 b 379 1178 382 1154 386 1174 b 329 1088 369 1185 376 1140 b 321 1008 317 1076 272 1014 z m 560 933 b 401 731 499 872 446 804 l 375 690 b 383 585 383 668 393 629 b 378 585 383 582 379 582 b 347 658 368 610 360 635 b 347 658 347 658 347 658 b 151 931 288 753 221 843 b 29 856 99 996 -31 932 b 279 489 39 843 192 642 b 246 399 260 451 249 408 b 203 35 226 317 189 138 b 261 -1 206 13 233 -1 b 344 49 303 -1 339 4 b 678 843 376 331 483 650 b 557 928 743 908 615 986 z "},"":{"ha":639,"x_min":0,"x_max":0,"o":"m 621 501 b 189 782 593 717 375 779 b 185 882 188 815 186 849 b 31 896 181 972 26 986 b 15 75 43 624 44 347 b 169 61 6 -15 160 -29 b 176 136 172 86 174 111 b 99 176 154 140 128 151 b 103 183 96 179 99 183 b 188 178 135 179 165 178 b 621 501 394 181 656 235 z m 188 317 b 192 642 192 425 193 533 b 460 518 293 640 425 626 b 186 315 518 335 315 317 z "},"":{"ha":713,"x_min":0,"x_max":0,"o":"m 244 1039 b 296 1039 257 1032 283 1032 b 310 1125 347 1067 317 1117 b 251 1146 296 1143 272 1147 b 207 1106 232 1144 215 1126 b 213 1060 203 1094 200 1071 b 247 1038 219 1053 231 1046 z m 433 1038 b 485 1038 446 1031 472 1031 b 499 1124 536 1065 506 1115 b 440 1144 485 1142 461 1146 b 396 1104 421 1143 404 1125 b 401 1058 392 1093 389 1069 b 435 1036 408 1051 419 1044 z m 565 928 b 407 725 504 867 451 799 l 381 685 b 389 579 389 663 399 624 b 383 579 389 576 385 576 b 353 653 374 604 365 629 b 353 653 353 653 353 653 b 157 925 293 747 226 838 b 35 850 104 990 -25 926 b 285 483 44 838 197 636 b 251 393 265 446 254 403 b 208 29 232 311 194 132 b 267 -7 211 7 239 -7 b 350 43 308 -7 344 -1 b 683 838 382 325 489 644 b 563 922 749 903 621 981 z "},"":{"ha":713,"x_min":0,"x_max":0,"o":"m 244 1039 b 296 1039 257 1032 283 1032 b 310 1125 347 1067 317 1117 b 251 1146 296 1143 272 1147 b 207 1106 232 1144 215 1126 b 213 1060 203 1094 200 1071 b 247 1038 219 1053 231 1046 z m 433 1038 b 485 1038 446 1031 472 1031 b 499 1124 536 1065 506 1115 b 440 1144 485 1142 461 1146 b 396 1104 421 1143 404 1125 b 401 1058 392 1093 389 1069 b 435 1036 408 1051 419 1044 z m 565 928 b 407 725 504 867 451 799 b 410 739 401 715 403 725 b 438 786 418 756 428 771 b 532 911 465 831 503 868 b 525 915 535 915 528 918 b 372 706 465 849 410 785 b 389 582 372 706 403 650 b 383 582 389 579 385 579 b 353 656 374 607 365 632 b 353 656 353 656 353 656 b 157 928 293 750 226 840 b 35 853 104 993 -25 929 b 79 796 50 835 65 815 b 42 836 67 810 54 824 b 35 832 39 839 32 836 b 193 592 90 753 147 676 b 261 438 219 542 242 490 b 208 31 260 433 190 165 b 267 -6 211 8 239 -6 b 350 44 308 -6 344 0 b 683 839 382 326 489 646 b 563 924 749 904 621 982 z m 276 472 b 219 589 260 513 240 551 b 282 483 242 554 263 519 b 276 471 279 479 278 475 z "},"":{"ha":265,"x_min":0,"x_max":0,"o":"m 14 911 b 114 649 19 818 53 721 b 235 722 165 588 293 654 b 186 800 217 744 200 771 b 157 956 172 851 158 901 b 150 956 157 960 150 960 b 147 926 149 946 147 936 b 14 910 133 996 10 983 z "},"":{"ha":265,"x_min":0,"x_max":0,"o":"m 117 928 b 114 957 117 938 115 947 b 107 957 114 961 107 961 b 78 801 106 903 92 853 b 29 724 64 772 47 746 b 150 650 -29 656 99 589 b 250 913 211 722 244 819 b 117 929 254 986 131 999 z "},"":{"ha":183,"x_min":0,"x_max":0,"o":"m 168 65 b 146 133 171 85 160 119 b 85 157 122 157 96 160 b 25 115 47 146 33 128 b 22 28 7 89 11 56 b 43 3 26 18 35 10 b 26 -33 40 -4 31 -25 b 49 -99 18 -47 0 -107 b 161 38 94 -90 151 -18 b 165 63 163 44 164 53 z "},"":{"ha":183,"x_min":0,"x_max":0,"o":"m 19 763 b 132 626 29 707 86 635 b 154 692 181 618 163 678 b 138 728 150 700 140 721 b 158 753 146 735 154 743 b 156 840 169 781 174 814 b 96 882 147 853 133 871 b 35 858 85 885 58 882 b 13 790 21 844 10 810 b 17 765 14 781 15 772 z "},"":{"ha":440,"x_min":0,"x_max":0,"o":"m 418 782 b 383 840 407 801 394 821 b 353 975 365 883 351 928 b 347 975 353 978 347 978 b 343 942 344 964 343 953 b 343 950 343 944 343 947 b 208 939 335 1025 203 1014 b 290 726 215 861 244 790 b 419 785 329 671 457 717 z m 188 803 b 158 958 174 854 160 904 b 151 958 158 963 151 963 b 149 929 150 949 149 939 b 15 913 135 999 11 986 b 115 650 21 819 54 722 b 236 724 167 589 294 656 b 188 801 218 746 201 772 z "},"":{"ha":440,"x_min":0,"x_max":0,"o":"m 96 947 b 96 939 96 944 96 942 b 92 972 96 950 94 961 b 86 972 92 975 86 975 b 56 838 88 925 74 881 b 21 779 44 818 32 799 b 150 721 -17 711 111 665 b 232 933 196 785 225 856 b 97 944 238 1008 106 1019 z m 293 925 b 290 954 293 935 292 944 b 283 954 290 958 283 958 b 254 799 282 900 268 850 b 206 721 240 769 224 743 b 326 647 147 653 275 586 b 426 910 388 719 421 817 b 293 926 431 983 307 996 z "},"":{"ha":379,"x_min":0,"x_max":0,"o":"m 85 158 b 25 117 47 147 33 129 b 22 29 7 90 11 57 b 43 4 26 19 35 11 b 26 -32 40 -3 31 -24 b 49 -97 18 -46 0 -106 b 161 39 94 -89 151 -17 b 165 64 163 46 164 54 b 143 132 168 83 157 118 b 82 156 119 156 93 158 z m 339 131 b 278 154 315 154 289 157 b 218 113 240 143 226 125 b 215 25 200 86 204 53 b 236 0 219 15 228 7 b 219 -36 233 -7 224 -28 b 242 -101 211 -50 193 -110 b 354 35 288 -93 344 -21 b 358 60 356 42 357 50 b 336 128 361 79 350 114 z "},"":{"ha":400,"x_min":0,"x_max":0,"o":"m 367 558 b 242 624 338 601 292 621 b 122 622 204 639 163 640 b 36 532 82 604 53 571 b 14 415 15 500 8 463 b 161 278 22 343 85 271 b 160 282 164 278 163 282 b 44 381 101 292 63 331 b 218 292 79 321 149 281 b 378 442 293 303 360 369 b 365 557 388 481 389 522 z "},"":{"ha":747,"x_min":0,"x_max":0,"o":"m 394 150 b 381 160 378 149 368 154 b 410 161 389 164 403 164 b 413 169 414 160 417 167 b 367 174 403 176 382 178 b 300 104 353 169 329 163 b 301 32 292 86 292 50 b 351 -11 317 1 340 -10 b 421 11 390 -11 408 1 b 450 93 446 31 451 64 b 394 146 449 119 422 149 z m 675 154 b 613 147 660 160 628 164 b 582 100 603 138 593 122 b 583 29 574 82 574 46 b 704 10 622 -42 692 0 b 733 92 729 29 735 63 b 678 153 732 118 707 142 z m 115 153 b 53 146 100 158 68 163 b 22 99 43 136 33 121 b 24 28 14 81 14 44 b 144 8 63 -43 132 -1 b 174 90 169 28 175 61 b 118 151 172 117 147 140 z "},"":{"ha":385,"x_min":0,"x_max":0,"o":"m 38 258 b 176 135 86 221 132 178 b 281 29 207 96 242 60 b 289 35 285 25 294 29 b 285 39 288 36 286 38 b 339 111 326 31 375 69 b 306 149 328 124 317 136 b 253 217 290 174 271 194 b 194 304 231 244 213 274 b 182 296 190 301 186 299 b 224 235 194 275 208 254 b 167 286 206 253 186 269 b 115 269 150 278 133 272 b 113 278 110 268 106 276 b 186 319 142 286 165 301 b 361 521 253 378 310 453 b 267 579 404 578 304 629 b 190 485 242 547 217 515 b 47 344 150 438 104 375 b 40 261 10 325 6 288 z "},"":{"ha":385,"x_min":0,"x_max":0,"o":"m 339 342 b 196 482 282 372 236 435 b 119 576 169 513 144 544 b 25 518 82 626 -18 575 b 200 317 76 450 133 375 b 274 275 221 299 244 283 b 271 267 281 274 276 265 b 219 283 253 269 236 275 b 163 232 200 267 181 250 b 204 293 178 251 192 272 b 192 301 200 296 196 299 b 133 214 174 271 156 242 b 81 146 115 192 96 171 b 47 108 69 133 58 121 b 101 36 11 67 60 28 b 97 32 100 35 99 33 b 106 26 92 26 101 22 b 210 132 144 57 179 93 b 349 256 254 175 300 218 b 342 339 383 282 379 319 z "},"":{"ha":790,"x_min":0,"x_max":0,"o":"m 639 269 b 326 181 597 151 418 71 b 281 282 303 210 289 244 b 414 278 325 283 369 282 b 422 390 497 269 504 378 b 278 399 375 397 326 400 b 269 399 275 399 272 399 b 281 479 271 426 275 453 b 411 475 324 481 368 479 b 419 588 494 467 501 575 b 319 594 386 593 353 594 b 526 715 361 681 446 813 b 594 579 558 678 581 626 b 733 601 618 501 758 519 b 547 865 703 701 647 819 b 165 590 369 949 224 744 b 115 583 149 588 132 585 b 39 567 89 581 64 578 b 42 561 35 565 38 560 b 82 568 54 564 68 567 b 61 564 75 567 68 565 b 85 458 -18 544 10 442 b 135 468 101 463 118 465 b 129 393 131 443 129 418 b 117 393 125 393 121 393 b 40 376 90 390 65 388 b 43 371 36 375 39 369 b 83 378 56 374 69 376 b 63 374 76 376 69 375 b 86 268 -17 354 11 251 b 140 278 104 272 122 275 b 319 33 161 174 217 81 b 771 233 482 -42 711 64 b 638 279 799 314 664 356 z "},"":{"ha":769,"x_min":0,"x_max":0,"o":"m 751 864 b 675 869 751 906 679 913 b 671 832 674 857 672 844 b 661 819 667 829 664 825 b 569 651 636 761 606 704 l 561 639 l 550 658 b 461 835 519 708 461 835 b 461 847 461 839 461 843 b 460 867 461 850 461 867 b 385 868 454 904 388 908 b 381 832 383 856 382 844 b 372 836 378 833 375 835 b 272 861 339 850 306 860 b 210 860 256 863 226 863 b 204 864 206 860 201 861 b 240 879 214 874 240 879 b 169 867 224 904 172 903 b 169 854 169 863 169 858 b 31 815 122 847 76 833 b 6 785 8 806 6 797 b 19 665 6 746 8 703 b 96 676 31 624 100 631 b 83 763 93 706 86 733 b 146 782 104 769 125 776 b 156 744 146 782 154 757 b 158 686 158 725 158 706 b 156 578 158 650 157 614 b 150 551 154 542 154 588 b 146 508 147 531 149 522 b 143 478 143 496 140 479 b 150 490 147 475 149 483 b 154 508 151 499 154 507 b 154 492 154 503 154 497 b 236 485 151 446 229 439 b 243 800 254 615 244 668 b 301 792 263 800 282 797 b 300 775 300 786 300 778 b 289 688 299 746 293 717 b 292 683 289 686 290 685 b 292 683 292 683 292 683 b 364 660 275 640 346 622 b 368 672 365 664 367 668 b 361 494 367 619 365 565 b 443 488 358 449 436 442 b 451 654 454 569 453 571 b 511 556 468 624 508 558 b 581 557 529 535 565 539 b 649 651 606 586 624 621 b 679 681 650 654 665 671 b 682 678 682 682 685 681 b 646 606 654 647 646 606 b 642 494 644 533 646 567 b 724 488 639 449 717 442 b 733 869 746 640 731 717 z m 154 761 b 146 794 151 772 149 783 b 154 794 149 794 151 794 b 154 761 154 783 154 772 z m 301 746 b 301 767 301 753 301 760 b 303 792 301 774 303 783 b 307 792 304 792 306 792 b 301 746 306 776 304 761 z "}}}
